<svg xmlns="http://www.w3.org/2000/svg" width="48" height="49" fill="none"><g clip-path="url(#a)"><path fill="#1A1A1A" d="M23.5 8.133c-2.1 0-4.153.634-5.899 1.82a10.766 10.766 0 0 0-3.91 4.85 10.98 10.98 0 0 0-.605 6.242c.41 2.096 1.421 4.02 2.906 5.532a10.563 10.563 0 0 0 5.436 2.957 10.45 10.45 0 0 0 6.135-.615 10.66 10.66 0 0 0 4.765-3.98 10.94 10.94 0 0 0 1.79-6.002 10.913 10.913 0 0 0-3.114-7.636A10.538 10.538 0 0 0 23.5 8.133Zm0 18.608c-1.517 0-3-.457-4.26-1.315a7.776 7.776 0 0 1-2.826-3.502 7.931 7.931 0 0 1-.436-4.51 7.848 7.848 0 0 1 2.099-3.995 7.63 7.63 0 0 1 3.927-2.136 7.547 7.547 0 0 1 4.43.444 7.7 7.7 0 0 1 3.443 2.874 7.9 7.9 0 0 1 1.292 4.336 7.883 7.883 0 0 1-2.248 5.516A7.611 7.611 0 0 1 23.5 26.74Zm17.947-7.467c.5-.992.667-2.123.477-3.221a5.142 5.142 0 0 0-1.53-2.861l-1.97-1.882a2.018 2.018 0 0 1-.613-1.078l-.616-2.677a5.131 5.131 0 0 0-1.67-2.78 4.98 4.98 0 0 0-2.98-1.19l-2.697-.152a1.955 1.955 0 0 1-1.15-.426l-2.163-1.648A4.972 4.972 0 0 0 23.5.322a4.972 4.972 0 0 0-3.035 1.037l-2.163 1.648c-.33.262-.732.411-1.15.426l-2.698.153a4.98 4.98 0 0 0-2.98 1.19 5.131 5.131 0 0 0-1.67 2.78l-.615 2.676c-.087.416-.301.794-.613 1.079l-1.97 1.88a5.142 5.142 0 0 0-1.53 2.862 5.196 5.196 0 0 0 .477 3.22l1.219 2.454c.197.376.271.805.212 1.227l-.32 2.73a5.191 5.191 0 0 0 .635 3.192 5.057 5.057 0 0 0 2.4 2.156l2.483 1.083c.039.016.075.034.112.052v14.655c0 .25.061.496.178.715.117.22.286.406.492.543a1.457 1.457 0 0 0 1.402.114l9.134-4.122 9.134 4.121a1.451 1.451 0 0 0 1.402-.113 1.49 1.49 0 0 0 .492-.542 1.52 1.52 0 0 0 .178-.716V32.167c.037-.018.073-.036.112-.053l2.484-1.082a5.058 5.058 0 0 0 2.4-2.156c.547-.965.77-2.086.634-3.192l-.32-2.73a2.039 2.039 0 0 1 .212-1.227l1.219-2.453Zm-17.35 21.785a1.453 1.453 0 0 0-1.195 0l-7.66 3.457v-8.489a5.002 5.002 0 0 0 1.636 1.13 4.929 4.929 0 0 0 1.938.396 5.05 5.05 0 0 0 1.486-.225l2.586-.795a1.942 1.942 0 0 1 1.224 0l2.586.795c.88.276 1.817.301 2.709.072a5.002 5.002 0 0 0 2.35-1.37v8.486l-7.66-3.457Zm14.719-23.138-1.219 2.453a5.077 5.077 0 0 0-.509 2.936l.32 2.73c.062.463-.03.933-.259 1.337-.229.404-.584.72-1.008.897l-2.483 1.082a4.936 4.936 0 0 0-2.245 1.917l-1.479 2.3a2.082 2.082 0 0 1-1.043.855c-.431.16-.902.17-1.34.028l-2.586-.795a4.834 4.834 0 0 0-2.93 0l-2.586.795a2.041 2.041 0 0 1-1.34-.028 2.083 2.083 0 0 1-1.043-.854l-1.479-2.3a4.936 4.936 0 0 0-2.244-1.917l-2.484-1.083a2.087 2.087 0 0 1-1.008-.897 2.143 2.143 0 0 1-.26-1.337l.32-2.73a5.075 5.075 0 0 0-.508-2.936L8.184 17.92a2.144 2.144 0 0 1 .44-2.54l1.97-1.882a5.022 5.022 0 0 0 1.466-2.582l.616-2.676c.098-.457.341-.867.693-1.167.351-.3.79-.473 1.249-.492l2.697-.153a4.863 4.863 0 0 0 2.754-1.02l2.163-1.647a2.052 2.052 0 0 1 2.536 0l2.163 1.647a4.863 4.863 0 0 0 2.753 1.02l2.698.153c.459.019.898.192 1.25.492.35.3.595.71.693 1.166l.616 2.677c.219.992.73 1.893 1.465 2.582l1.97 1.881c.339.315.566.735.646 1.194.08.46.007.934-.206 1.348Z"/></g><defs><clipPath id="a"><path fill="#fff" d="M0 .322h48v48H0z"/></clipPath></defs></svg>