<svg xmlns="http://www.w3.org/2000/svg" width="48" height="49" fill="none"><g clip-path="url(#a)"><path fill="#1A1A1A" d="m36.972 36.121-5.659-3.267a3.813 3.813 0 0 0-5.202 1.394l-.223.387a2.322 2.322 0 0 1-3.404.696 47.772 47.772 0 0 1-5.075-4.418 47.74 47.74 0 0 1-4.418-5.075 2.323 2.323 0 0 1 .696-3.404l.387-.223a3.813 3.813 0 0 0 1.394-5.202L12.2 11.35a3.787 3.787 0 0 0-4.69-1.64l-.07.027c-2.795 1.097-4.689 1.879-5.516 2.706-2.322 2.322-2.551 6.311-.644 11.232 1.753 4.524 5.139 9.436 9.534 13.832 4.395 4.395 9.308 7.781 13.832 9.534 2.206.856 4.226 1.281 5.991 1.281 2.172 0 3.96-.644 5.241-1.925.827-.827 1.608-2.72 2.706-5.515l.027-.07a3.786 3.786 0 0 0-1.64-4.69Zm-1.152 3.594-.028.07c-.509 1.296-1.568 3.994-2.034 4.49-1.41 1.41-4.336 1.4-8.027-.031-4.143-1.605-8.687-4.752-12.794-8.86-4.107-4.107-7.253-8.65-8.86-12.793-1.43-3.69-1.441-6.617-.033-8.025.5-.468 3.197-1.528 4.493-2.036l.07-.028a.793.793 0 0 1 .995.348l3.268 5.659a.81.81 0 0 1-.296 1.104l-.387.223a5.322 5.322 0 0 0-1.595 7.803 50.719 50.719 0 0 0 4.696 5.395 50.736 50.736 0 0 0 5.395 4.697 5.32 5.32 0 0 0 7.803-1.596l.223-.387a.81.81 0 0 1 1.104-.296l5.659 3.267a.793.793 0 0 1 .348.996Zm1.68-27.692a1.5 1.5 0 0 0-1.665.46l-7.142 8.68a1.5 1.5 0 0 0 1.158 2.452h5.642v1.66a1.5 1.5 0 0 0 3 0v-1.66h.28a1.5 1.5 0 0 0 0-3h-.28v-7.18a1.5 1.5 0 0 0-.993-1.412Zm-2.007 8.592h-2.465l2.465-2.996v2.996Zm-10.166-2.962c.276-1.01.113-1.762-.484-2.234-.694-.55-1.852-.647-2.634-.22-.563.306-.802.824-.729 1.582a1.5 1.5 0 1 1-2.986.288c-.19-1.97.642-3.613 2.28-4.505 1.847-1.006 4.286-.8 5.931.502 1.56 1.234 2.113 3.194 1.516 5.377-.406 1.487-1.81 2.582-3.296 3.742-.634.495-1.308 1.02-1.919 1.59h4.358a1.5 1.5 0 0 1 0 3h-7.412a1.5 1.5 0 0 1-1.35-2.155c1.021-2.103 2.938-3.598 4.477-4.8.938-.732 2.105-1.642 2.248-2.167ZM48 19.858a19.408 19.408 0 0 1-5.722 13.813 1.5 1.5 0 0 1-2.121-2.121A16.428 16.428 0 0 0 45 19.858c0-9.118-7.418-16.536-16.536-16.536a16.427 16.427 0 0 0-11.692 4.844 1.5 1.5 0 0 1-2.121-2.122A19.407 19.407 0 0 1 28.464.322C39.236.322 48 9.086 48 19.858Z"/></g><defs><clipPath id="a"><path fill="#fff" d="M0 .322h48v48H0z"/></clipPath></defs></svg>