<?xml version="1.0" encoding="UTF-8"?>
<svg xmlns="http://www.w3.org/2000/svg" xmlns:xlink="http://www.w3.org/1999/xlink" width="113px" height="30px" viewBox="0 0 112 30" version="1.1">
<g id="surface1">
<path style=" stroke:none;fill-rule:nonzero;fill:rgb(54.901963%,59.607846%,64.313728%);fill-opacity:1;" d="M 16.519531 1.816406 C 11.679688 2.480469 8.925781 5.402344 7.929688 10.941406 C 7.605469 12.746094 7.582031 17.085938 7.886719 18.777344 C 8.410156 21.664062 9.398438 23.71875 10.976562 25.195312 C 12.242188 26.367188 13.707031 27.078125 15.8125 27.53125 C 16.765625 27.746094 17.335938 27.789062 19.097656 27.789062 C 21.347656 27.789062 21.996094 27.710938 23.632812 27.214844 C 24.683594 26.898438 26.140625 26.253906 26.453125 25.972656 C 26.644531 25.804688 26.65625 25.410156 26.65625 19.453125 C 26.65625 14.683594 26.621094 13.09375 26.523438 12.992188 C 26.421875 12.890625 25.3125 12.855469 22.222656 12.855469 C 18.582031 12.855469 18.019531 12.878906 17.875 13.039062 C 17.730469 13.183594 17.695312 13.546875 17.695312 15.269531 C 17.695312 16.714844 17.742188 17.367188 17.832031 17.457031 C 17.921875 17.550781 18.480469 17.59375 19.621094 17.59375 L 21.28125 17.59375 L 21.28125 22.554688 L 20.976562 22.636719 C 20.796875 22.691406 19.859375 22.726562 18.871094 22.726562 C 17.269531 22.714844 17.011719 22.691406 16.429688 22.453125 C 15.019531 21.890625 13.886719 20.378906 13.441406 18.441406 C 12.992188 16.554688 12.957031 13.273438 13.371094 11.480469 C 14.144531 8.132812 16.003906 6.765625 19.789062 6.765625 C 21.269531 6.765625 22.109375 6.878906 23.554688 7.242188 C 24.316406 7.445312 24.5625 7.464844 24.628906 7.351562 C 24.671875 7.285156 24.929688 6.292969 25.1875 5.164062 L 25.671875 3.113281 L 25.425781 2.910156 C 25.089844 2.640625 23.597656 2.175781 22.367188 1.960938 C 21.125 1.757812 17.605469 1.65625 16.519531 1.816406 Z M 16.519531 1.816406 "/>
<path style=" stroke:none;fill-rule:nonzero;fill:rgb(54.901963%,59.607846%,64.313728%);fill-opacity:1;" d="M 50.535156 2.730469 C 50.34375 2.921875 50.34375 27.078125 50.535156 27.269531 C 50.726562 27.460938 55.339844 27.460938 55.53125 27.269531 C 55.628906 27.167969 55.664062 25.828125 55.664062 21.914062 L 55.664062 16.691406 L 62.832031 16.691406 L 62.832031 21.9375 C 62.832031 27 62.84375 27.179688 63.042969 27.292969 C 63.179688 27.359375 64.1875 27.40625 65.566406 27.40625 C 67.503906 27.40625 67.882812 27.382812 68.027344 27.226562 C 68.1875 27.066406 68.207031 25.804688 68.207031 15 C 68.207031 4.195312 68.1875 2.933594 68.027344 2.773438 C 67.882812 2.617188 67.503906 2.59375 65.566406 2.59375 C 64.1875 2.59375 63.179688 2.640625 63.042969 2.707031 C 62.84375 2.820312 62.832031 2.988281 62.832031 7.332031 L 62.832031 11.84375 L 55.664062 11.84375 L 55.664062 7.351562 C 55.664062 4.015625 55.628906 2.832031 55.53125 2.730469 C 55.339844 2.539062 50.726562 2.539062 50.535156 2.730469 Z M 50.535156 2.730469 "/>
<path style=" stroke:none;fill-rule:nonzero;fill:rgb(54.901963%,59.607846%,64.313728%);fill-opacity:1;" d="M 88.433594 2.773438 C 88.277344 2.933594 88.257812 4.195312 88.257812 15 C 88.257812 25.804688 88.277344 27.066406 88.433594 27.226562 C 88.582031 27.371094 88.90625 27.40625 90.273438 27.40625 C 92.097656 27.40625 92.289062 27.339844 92.289062 26.75 C 92.289062 26.582031 92.332031 26.367188 92.398438 26.277344 C 92.488281 26.144531 92.523438 26.144531 92.703125 26.300781 C 93.070312 26.640625 94.515625 27.304688 95.402344 27.542969 C 96.589844 27.855469 98.984375 27.878906 99.960938 27.585938 C 102.894531 26.695312 104.148438 24.382812 104.339844 19.453125 C 104.5625 13.996094 102.996094 10.851562 99.703125 10.160156 C 98.125 9.835938 95.894531 10.082031 94.371094 10.757812 C 94.011719 10.917969 93.699219 11.050781 93.675781 11.050781 C 93.65625 11.050781 93.632812 9.203125 93.632812 6.9375 C 93.632812 2.988281 93.621094 2.820312 93.417969 2.707031 C 93.285156 2.640625 92.277344 2.59375 90.898438 2.59375 C 88.960938 2.59375 88.582031 2.617188 88.433594 2.773438 Z M 97.640625 14.648438 C 98.671875 15.179688 99.054688 16.320312 99.0625 18.890625 C 99.0625 22.464844 98.492188 23.457031 96.433594 23.457031 C 95.535156 23.457031 94.292969 23.164062 93.8125 22.851562 L 93.519531 22.667969 L 93.519531 15.101562 L 94.058594 14.875 C 95.414062 14.289062 96.769531 14.199219 97.640625 14.648438 Z M 97.640625 14.648438 "/>
<path style=" stroke:none;fill-rule:nonzero;fill:rgb(54.901963%,59.607846%,64.313728%);fill-opacity:1;" d="M 31.304688 3.269531 C 29.949219 3.621094 29.140625 4.566406 29.03125 5.921875 C 28.964844 6.8125 29.1875 7.5 29.769531 8.144531 C 31.585938 10.171875 34.867188 8.875 34.855469 6.148438 C 34.855469 5.628906 34.777344 5.253906 34.609375 4.917969 C 34.015625 3.664062 32.558594 2.945312 31.304688 3.269531 Z M 31.304688 3.269531 "/>
<path style=" stroke:none;fill-rule:nonzero;fill:rgb(54.901963%,59.607846%,64.313728%);fill-opacity:1;" d="M 39.234375 5.730469 C 39.132812 5.796875 39.089844 6.472656 39.066406 8.222656 L 39.03125 10.636719 L 37.765625 10.941406 C 37.0625 11.109375 36.445312 11.300781 36.390625 11.355469 C 36.332031 11.414062 36.300781 12.191406 36.308594 13.148438 L 36.34375 14.832031 L 37.6875 14.886719 L 39.03125 14.945312 L 39.089844 19.398438 C 39.15625 24.113281 39.15625 24.191406 39.726562 25.308594 C 40.253906 26.335938 41.550781 27.25 42.972656 27.585938 C 44.386719 27.914062 47.464844 27.734375 48.003906 27.28125 C 48.214844 27.113281 48.226562 23.628906 48.027344 23.503906 C 47.945312 23.457031 47.476562 23.425781 46.972656 23.449219 C 45.316406 23.492188 44.566406 23.109375 44.351562 22.070312 C 44.285156 21.710938 44.25 20.246094 44.261719 18.214844 L 44.296875 14.945312 L 46.089844 14.910156 C 47.609375 14.886719 47.902344 14.851562 48.027344 14.695312 C 48.195312 14.457031 48.214844 11.03125 48.046875 10.703125 C 47.9375 10.5 47.789062 10.488281 46.089844 10.488281 L 44.238281 10.488281 L 44.238281 8.132812 C 44.238281 6.089844 44.21875 5.761719 44.0625 5.707031 C 43.804688 5.605469 39.390625 5.628906 39.234375 5.730469 Z M 39.234375 5.730469 "/>
<path style=" stroke:none;fill-rule:nonzero;fill:rgb(54.901963%,59.607846%,64.313728%);fill-opacity:1;" d="M 29.367188 10.625 C 29.265625 10.726562 29.230469 12.722656 29.230469 18.902344 C 29.230469 26.324219 29.242188 27.054688 29.421875 27.191406 C 29.558594 27.316406 30.152344 27.359375 31.875 27.382812 C 34.046875 27.417969 34.160156 27.40625 34.371094 27.191406 C 34.609375 26.953125 34.609375 26.875 34.609375 18.855469 C 34.609375 12.710938 34.574219 10.726562 34.472656 10.625 C 34.28125 10.433594 29.558594 10.433594 29.367188 10.625 Z M 29.367188 10.625 "/>
<path style=" stroke:none;fill-rule:nonzero;fill:rgb(54.901963%,59.607846%,64.313728%);fill-opacity:1;" d="M 70.582031 10.589844 C 70.46875 10.65625 70.449219 11.964844 70.46875 17.265625 L 70.503906 23.851562 L 70.796875 24.621094 C 71.445312 26.277344 72.351562 27.089844 74.15625 27.585938 C 74.691406 27.746094 75.285156 27.789062 76.550781 27.789062 C 78.054688 27.777344 78.332031 27.753906 79.238281 27.472656 C 79.800781 27.304688 80.652344 26.976562 81.144531 26.730469 C 81.636719 26.492188 82.074219 26.324219 82.117188 26.355469 C 82.175781 26.378906 82.207031 26.550781 82.207031 26.730469 C 82.207031 27.339844 82.398438 27.40625 84.101562 27.40625 C 85.140625 27.40625 85.679688 27.359375 85.769531 27.269531 C 85.871094 27.167969 85.902344 25.148438 85.902344 18.878906 C 85.902344 11.457031 85.882812 10.625 85.726562 10.554688 C 85.378906 10.421875 80.921875 10.476562 80.773438 10.625 C 80.671875 10.726562 80.640625 12.238281 80.640625 16.726562 L 80.640625 22.679688 L 79.890625 23.042969 C 79.195312 23.367188 79.039062 23.402344 77.984375 23.402344 C 77.011719 23.402344 76.808594 23.367188 76.53125 23.164062 C 75.8125 22.636719 75.824219 22.75 75.824219 16.5 C 75.824219 11.503906 75.800781 10.828125 75.644531 10.667969 C 75.5 10.511719 75.105469 10.488281 73.101562 10.488281 C 71.792969 10.488281 70.660156 10.535156 70.582031 10.589844 Z M 70.582031 10.589844 "/>
</g>
</svg>
