<?xml version="1.0" encoding="UTF-8"?>
<svg xmlns="http://www.w3.org/2000/svg" xmlns:xlink="http://www.w3.org/1999/xlink" width="113px" height="46px" viewBox="0 0 112 46" version="1.1">
<g id="surface1">
<path style=" stroke:none;fill-rule:nonzero;fill:rgb(54.901963%,59.607846%,64.313728%);fill-opacity:1;" d="M 25.59375 45.472656 L 25.59375 33.910156 L 25.8125 33.691406 L 28.699219 33.691406 L 28.917969 33.910156 L 28.917969 45.472656 L 28.699219 45.691406 L 25.8125 45.691406 Z M 25.59375 45.472656 "/>
<path style=" stroke:none;fill-rule:nonzero;fill:rgb(54.901963%,59.607846%,64.313728%);fill-opacity:1;" d="M 25.59375 11.785156 L 25.59375 0.21875 L 25.8125 0 L 28.699219 0 L 28.917969 0.21875 L 28.917969 11.785156 L 28.699219 12.003906 L 25.8125 12.003906 Z M 25.59375 11.785156 "/>
<path style=" stroke:none;fill-rule:nonzero;fill:rgb(54.901963%,59.607846%,64.313728%);fill-opacity:1;" d="M 15.664062 37.324219 L 15.269531 37.324219 L 13.300781 35.355469 L 13.300781 34.960938 L 17.019531 31.234375 L 19.117188 31.234375 L 19.382812 31.5 L 19.382812 33.601562 Z M 15.664062 37.324219 "/>
<path style=" stroke:none;fill-rule:nonzero;fill:rgb(54.901963%,59.607846%,64.313728%);fill-opacity:1;" d="M 13.300781 10.820312 L 13.300781 10.425781 L 15.269531 8.457031 L 15.664062 8.457031 L 19.382812 12.179688 L 19.382812 14.28125 L 19.117188 14.542969 L 17.019531 14.542969 Z M 13.300781 10.820312 "/>
<path style=" stroke:none;fill-rule:nonzero;fill:rgb(54.901963%,59.607846%,64.313728%);fill-opacity:1;" d="M 0.21875 21.160156 L 16.539062 21.160156 L 16.757812 21.378906 L 16.757812 24.269531 L 16.582031 24.535156 L 0.21875 24.535156 L 0 24.269531 L 0 21.378906 Z M 0.21875 21.160156 "/>
<path style=" stroke:none;fill-rule:nonzero;fill:rgb(54.901963%,59.607846%,64.313728%);fill-opacity:1;" d="M 111.738281 21.160156 L 111.957031 21.378906 L 111.957031 24.269531 L 111.738281 24.488281 L 95.15625 24.488281 L 94.9375 24.269531 L 96.117188 21.378906 L 96.335938 21.160156 Z M 111.738281 21.160156 "/>
<path style=" stroke:none;fill-rule:nonzero;fill:rgb(54.901963%,59.607846%,64.313728%);fill-opacity:1;" d="M 32.679688 28.871094 L 29.792969 28.871094 L 29.574219 28.652344 L 29.574219 21.859375 C 29.574219 20.679688 29.09375 19.714844 27.648438 19.714844 C 26.90625 19.714844 26.03125 19.714844 25.15625 19.757812 L 25.023438 19.890625 L 25.023438 28.652344 L 24.804688 28.871094 L 21.875 28.871094 L 21.65625 28.652344 L 21.65625 17.085938 L 21.875 16.867188 L 28.351562 16.867188 C 30.886719 16.867188 32.898438 18.925781 32.898438 21.421875 L 32.898438 28.652344 Z M 32.679688 28.871094 "/>
<path style=" stroke:none;fill-rule:nonzero;fill:rgb(54.901963%,59.607846%,64.313728%);fill-opacity:1;" d="M 46.636719 23.789062 L 46.417969 24.007812 L 38.9375 24.007812 L 38.71875 24.226562 C 38.71875 24.707031 39.199219 26.152344 41.125 26.152344 C 41.824219 26.152344 42.570312 25.933594 42.789062 25.453125 L 43.007812 25.234375 L 45.894531 25.234375 L 46.113281 25.453125 C 45.894531 26.898438 44.667969 29.046875 41.082031 29.046875 C 37.011719 29.046875 35.085938 26.152344 35.085938 22.78125 C 35.085938 19.40625 37.011719 16.515625 40.863281 16.515625 C 44.710938 16.515625 46.636719 19.40625 46.636719 22.78125 Z M 43.007812 21.421875 C 43.007812 21.203125 42.789062 19.496094 40.863281 19.496094 C 38.9375 19.496094 38.71875 21.160156 38.71875 21.421875 L 38.9375 21.640625 L 42.789062 21.640625 Z M 43.007812 21.421875 "/>
<path style=" stroke:none;fill-rule:nonzero;fill:rgb(54.901963%,59.607846%,64.313728%);fill-opacity:1;" d="M 53.332031 25.234375 C 53.332031 25.714844 53.550781 25.933594 54.03125 25.933594 L 56.175781 25.933594 L 56.394531 26.152344 L 56.394531 28.5625 L 56.175781 28.78125 L 54.03125 28.78125 C 51.886719 28.78125 49.960938 27.820312 49.960938 25.191406 L 49.960938 19.976562 L 49.742188 19.757812 L 48.082031 19.757812 L 47.863281 19.539062 L 47.863281 17.085938 L 48.082031 16.867188 L 49.742188 16.867188 L 49.960938 16.648438 L 49.960938 14.5 L 50.179688 14.28125 L 53.070312 14.28125 L 53.289062 14.5 L 53.289062 16.648438 L 53.507812 16.867188 L 56.132812 16.867188 L 56.351562 17.085938 L 56.351562 19.496094 L 56.132812 19.714844 L 53.507812 19.714844 L 53.289062 19.933594 Z M 53.332031 25.234375 "/>
<path style=" stroke:none;fill-rule:nonzero;fill:rgb(54.901963%,59.607846%,64.313728%);fill-opacity:1;" d="M 62.257812 28.871094 L 59.367188 28.871094 L 59.148438 28.652344 L 59.148438 12.265625 L 59.367188 12.046875 L 62.257812 12.046875 L 62.476562 12.265625 L 62.476562 28.652344 Z M 62.257812 28.871094 "/>
<path style=" stroke:none;fill-rule:nonzero;fill:rgb(54.901963%,59.607846%,64.313728%);fill-opacity:1;" d="M 68.730469 14.894531 L 65.84375 14.894531 L 65.625 14.675781 L 65.625 12.265625 L 65.84375 12.046875 L 68.730469 12.046875 L 68.949219 12.265625 L 68.949219 14.675781 Z M 68.730469 28.871094 L 65.84375 28.871094 L 65.625 28.652344 L 65.625 17.085938 L 65.84375 16.867188 L 68.730469 16.867188 L 68.949219 17.085938 L 68.949219 28.652344 Z M 68.730469 28.871094 "/>
<path style=" stroke:none;fill-rule:nonzero;fill:rgb(54.901963%,59.607846%,64.313728%);fill-opacity:1;" d="M 80.019531 12.265625 L 80.019531 14.675781 L 79.800781 14.894531 L 77.65625 14.894531 C 77.175781 14.894531 76.957031 15.113281 76.957031 15.597656 L 76.957031 16.558594 L 77.175781 16.777344 L 79.582031 16.777344 L 79.800781 17 L 79.800781 19.40625 L 79.582031 19.625 L 77.175781 19.625 L 76.957031 19.847656 L 76.957031 28.519531 L 76.738281 28.738281 L 73.851562 28.738281 L 73.632812 28.519531 L 73.632812 19.976562 L 73.414062 19.757812 L 71.75 19.757812 L 71.53125 19.539062 L 71.53125 17.085938 L 71.75 16.867188 L 73.414062 16.867188 L 73.632812 16.648438 L 73.632812 15.683594 C 73.632812 13.054688 75.554688 12.089844 77.699219 12.089844 L 79.84375 12.089844 Z M 80.019531 12.265625 "/>
<path style=" stroke:none;fill-rule:nonzero;fill:rgb(54.901963%,59.607846%,64.313728%);fill-opacity:1;" d="M 88.898438 29.089844 C 87.9375 31.5 86.976562 32.945312 83.605469 32.945312 L 82.425781 32.945312 L 82.207031 32.726562 L 82.207031 30.316406 L 82.425781 30.097656 L 83.605469 30.097656 C 84.789062 30.097656 85.050781 29.878906 85.269531 29.132812 L 85.269531 28.914062 L 81.417969 19.539062 L 81.417969 17.085938 L 81.636719 16.867188 L 83.78125 16.867188 L 84 17.085938 L 86.886719 25.277344 L 87.105469 25.277344 L 90.125 17.085938 L 90.34375 16.867188 L 92.488281 16.867188 L 92.75 17.085938 L 92.75 19.496094 Z M 88.898438 29.089844 "/>
</g>
</svg>
