<?xml version="1.0" encoding="UTF-8"?>
<svg xmlns="http://www.w3.org/2000/svg" xmlns:xlink="http://www.w3.org/1999/xlink" width="197px" height="71px" viewBox="0 0 198 71" version="1.1">
<g id="surface1">
<path style=" stroke:none;fill-rule:nonzero;fill:rgb(100%,100%,100%);fill-opacity:1;" d="M 31.199219 63.851562 C 29.910156 62.550781 28.648438 61.222656 27.324219 59.960938 C 26.78125 59.4375 26.742188 58.839844 26.769531 58.1875 C 26.78125 57.894531 26.871094 57.601562 26.871094 57.308594 C 26.878906 45.578125 26.875 33.84375 26.875 22.113281 C 26.875 21.910156 26.875 21.707031 26.875 21.363281 C 25.875 22.367188 24.949219 23.285156 24.046875 24.230469 C 23.933594 24.351562 23.933594 24.609375 23.933594 24.804688 C 23.925781 30.28125 23.910156 35.761719 23.949219 41.238281 C 23.953125 42.03125 23.429688 42.308594 22.800781 42.304688 C 20.191406 42.304688 17.585938 42.304688 14.980469 42.304688 C 13.675781 42.304688 12.371094 42.300781 11.070312 42.3125 C 10.929688 42.3125 10.746094 42.363281 10.65625 42.460938 C 10.019531 43.148438 9.265625 43.378906 8.484375 43.089844 C 7.796875 42.839844 7.371094 42.121094 7.371094 41.21875 C 7.371094 41.160156 7.371094 41.105469 7.414062 40.980469 C 7.546875 40.699219 7.636719 40.484375 7.722656 40.269531 C 8.683594 39.445312 9.394531 39.398438 10.335938 40.039062 C 10.394531 40.082031 10.484375 40.117188 10.503906 40.175781 C 10.722656 40.917969 11.308594 40.835938 11.890625 40.835938 C 15.382812 40.824219 18.878906 40.832031 22.417969 40.832031 C 22.429688 40.683594 22.453125 40.542969 22.453125 40.402344 C 22.453125 35.945312 22.457031 31.488281 22.449219 27.03125 C 22.445312 26.28125 22.367188 25.535156 22.34375 24.789062 C 22.324219 24.171875 22.523438 23.660156 22.988281 23.210938 C 24.304688 21.9375 25.582031 20.628906 26.878906 19.332031 C 27.335938 18.875 27.609375 18.863281 28.191406 19.316406 C 28.28125 19.570312 28.324219 19.765625 28.371094 19.960938 C 28.363281 20.148438 28.351562 20.339844 28.351562 20.527344 C 28.351562 33.152344 28.351562 45.78125 28.34375 58.40625 C 28.34375 58.769531 28.4375 59.03125 28.703125 59.289062 C 29.480469 60.027344 30.226562 60.800781 31.070312 61.648438 C 31.070312 61.371094 31.070312 61.195312 31.070312 61.019531 C 31.070312 44.765625 31.074219 28.511719 31.066406 12.253906 C 31.066406 11.828125 30.996094 11.402344 30.960938 10.976562 C 30.890625 10.164062 31.191406 9.523438 31.789062 8.964844 C 32.960938 7.875 34.09375 6.746094 35.246094 5.640625 C 35.351562 5.539062 35.476562 5.449219 35.605469 5.394531 C 36.078125 5.1875 36.5625 5.472656 36.625 5.980469 C 36.644531 6.128906 36.628906 6.28125 36.628906 6.433594 C 36.628906 20.855469 36.628906 35.277344 36.628906 49.699219 C 36.628906 49.898438 36.628906 50.101562 36.628906 50.46875 C 37.597656 49.484375 38.472656 48.613281 39.316406 47.710938 C 39.441406 47.578125 39.457031 47.300781 39.457031 47.09375 C 39.464844 39.605469 39.464844 32.121094 39.464844 24.636719 C 39.464844 23.949219 39.734375 23.652344 40.332031 23.714844 C 40.480469 23.726562 40.644531 23.820312 40.75 23.929688 C 42.027344 25.191406 43.320312 26.4375 44.546875 27.75 C 44.851562 28.078125 44.929688 28.621094 45.125 29.152344 C 45.101562 29.433594 45.070312 29.632812 45.039062 29.828125 C 45.039062 33.472656 45.039062 37.121094 45.039062 40.796875 C 72.835938 40.796875 100.625 40.796875 128.449219 40.796875 C 128.449219 40.199219 128.449219 39.585938 128.449219 38.925781 C 128.003906 39.320312 127.582031 39.722656 127.125 40.082031 C 126.9375 40.226562 126.679688 40.355469 126.449219 40.363281 C 125.488281 40.394531 124.523438 40.378906 123.558594 40.375 C 123.035156 40.375 121.34375 38.675781 121.339844 38.152344 C 121.339844 36.390625 121.328125 34.632812 121.351562 32.878906 C 121.355469 32.652344 121.484375 32.378906 121.640625 32.210938 C 122.136719 31.667969 122.589844 30.960938 123.21875 30.699219 C 123.847656 30.433594 124.675781 30.699219 125.402344 30.605469 C 126.539062 30.457031 127.410156 30.800781 128.070312 31.730469 C 128.179688 31.886719 128.34375 32 128.578125 32.226562 C 128.578125 31.613281 128.578125 31.152344 128.578125 30.65625 C 129.15625 30.65625 129.691406 30.65625 130.277344 30.65625 C 130.277344 34.019531 130.277344 37.390625 130.277344 40.800781 C 130.480469 40.8125 130.644531 40.828125 130.808594 40.828125 C 150.574219 40.832031 170.34375 40.832031 190.113281 40.832031 C 190.375 40.832031 190.582031 40.820312 190.753906 40.554688 C 191.414062 39.527344 192.722656 39.453125 193.648438 40.40625 C 193.800781 40.664062 193.910156 40.863281 194.019531 41.0625 C 194.082031 41.863281 193.957031 42.554688 193.171875 43.011719 C 192.355469 43.488281 191.429688 43.414062 190.855469 42.675781 C 190.613281 42.367188 190.359375 42.300781 190.011719 42.300781 C 188.800781 42.3125 187.59375 42.304688 186.382812 42.304688 C 167.917969 42.304688 149.453125 42.304688 130.988281 42.304688 C 130.78125 42.304688 130.574219 42.304688 130.503906 42.304688 C 130.238281 42.6875 130.03125 42.988281 129.828125 43.289062 C 129.003906 44.5 127.867188 44.886719 126.433594 44.707031 C 125.59375 44.601562 124.734375 44.710938 123.882812 44.671875 C 123.621094 44.660156 123.339844 44.507812 123.121094 44.34375 C 122.832031 44.132812 122.609375 43.839844 122.347656 43.597656 C 121.980469 43.261719 121.628906 42.925781 121.835938 42.304688 C 121.550781 42.304688 121.328125 42.304688 121.105469 42.304688 C 95.703125 42.304688 70.300781 42.304688 44.902344 42.304688 C 43.753906 42.304688 43.546875 42.097656 43.546875 40.941406 C 43.546875 37.027344 43.550781 33.113281 43.53125 29.203125 C 43.53125 28.945312 43.386719 28.628906 43.207031 28.4375 C 42.503906 27.679688 41.757812 26.960938 40.9375 26.140625 C 40.9375 26.429688 40.9375 26.625 40.9375 26.820312 C 40.9375 33.664062 40.925781 40.503906 40.957031 47.347656 C 40.960938 48.121094 40.664062 48.660156 40.160156 49.148438 C 39.039062 50.238281 37.917969 51.324219 36.789062 52.402344 C 36.617188 52.566406 36.425781 52.722656 36.21875 52.835938 C 35.757812 53.082031 35.1875 52.742188 35.15625 52.21875 C 35.148438 52.085938 35.15625 51.953125 35.15625 51.820312 C 35.152344 37.417969 35.152344 23.015625 35.152344 8.519531 C 35.148438 8.378906 35.140625 8.332031 35.144531 8.238281 C 35.167969 7.859375 35.042969 7.878906 34.847656 8.074219 C 34.464844 8.464844 34.082031 8.851562 33.675781 9.261719 C 33.542969 9.398438 33.441406 9.511719 33.300781 9.640625 C 32.992188 9.992188 32.722656 10.328125 32.453125 10.660156 C 32.445312 10.886719 32.433594 11.113281 32.433594 11.339844 C 32.433594 28.625 32.433594 45.90625 32.441406 63.191406 C 32.441406 63.609375 32.351562 63.914062 31.867188 64.082031 C 31.585938 64.003906 31.394531 63.925781 31.199219 63.851562 M 123.609375 32.605469 C 123.203125 32.871094 123.132812 33.257812 123.144531 33.722656 C 123.175781 34.855469 123.195312 35.992188 123.136719 37.121094 C 123.105469 37.75 123.308594 38.1875 123.777344 38.570312 C 124.144531 38.867188 126.492188 38.898438 126.832031 38.566406 C 127.382812 38.023438 128.125 37.558594 128.414062 36.898438 C 128.6875 36.28125 128.480469 35.453125 128.484375 34.714844 C 128.484375 34.546875 128.492188 34.375 128.480469 34.207031 C 128.472656 34.101562 128.464844 33.964844 128.398438 33.902344 C 127.507812 33.042969 126.765625 31.898438 125.238281 32.203125 C 124.984375 32.253906 124.703125 32.167969 124.449219 32.222656 C 124.179688 32.28125 123.933594 32.433594 123.609375 32.605469 M 124.085938 42.957031 C 124.253906 43.003906 124.425781 43.089844 124.597656 43.09375 C 125.351562 43.109375 126.113281 43.042969 126.859375 43.117188 C 127.554688 43.183594 127.976562 42.878906 128.339844 42.339844 C 126.753906 42.339844 125.191406 42.339844 123.625 42.339844 C 123.566406 42.414062 123.503906 42.488281 123.441406 42.5625 C 123.636719 42.671875 123.832031 42.777344 124.085938 42.957031 Z M 124.085938 42.957031 "/>
<path style=" stroke:none;fill-rule:nonzero;fill:rgb(100%,100%,100%);fill-opacity:1;" d="M 60.425781 40.378906 C 59.921875 40.378906 59.472656 40.378906 58.96875 40.378906 C 58.96875 39.308594 58.933594 38.277344 58.984375 37.246094 C 59.007812 36.777344 58.859375 36.410156 58.582031 36.089844 C 58.226562 35.679688 57.820312 35.308594 57.425781 34.929688 C 57.355469 34.863281 57.230469 34.824219 57.128906 34.824219 C 55.640625 34.816406 54.15625 34.820312 52.625 34.820312 C 52.625 36.679688 52.625 38.503906 52.625 40.351562 C 52.007812 40.351562 51.433594 40.351562 50.832031 40.351562 C 50.832031 35.796875 50.832031 31.257812 50.832031 26.675781 C 50.976562 26.667969 51.121094 26.65625 51.265625 26.65625 C 53.679688 26.652344 56.097656 26.644531 58.515625 26.664062 C 58.742188 26.667969 59.019531 26.785156 59.1875 26.945312 C 59.738281 27.453125 60.449219 27.925781 60.71875 28.570312 C 60.984375 29.195312 60.714844 30.023438 60.796875 30.753906 C 60.960938 32.242188 60.683594 33.507812 59.203125 34.28125 C 59.609375 34.746094 59.914062 35.144531 60.273438 35.484375 C 60.640625 35.832031 60.808594 36.199219 60.792969 36.710938 C 60.757812 37.808594 60.78125 38.902344 60.785156 40 C 60.785156 40.21875 60.808594 40.433594 60.425781 40.378906 M 58.832031 32.527344 C 58.878906 32.355469 58.960938 32.183594 58.960938 32.011719 C 58.976562 31.160156 58.972656 30.3125 58.96875 29.460938 C 58.964844 28.929688 58.289062 28.242188 57.757812 28.242188 C 56.304688 28.238281 54.851562 28.242188 53.398438 28.242188 C 53.140625 28.242188 52.886719 28.242188 52.65625 28.242188 C 52.65625 29.949219 52.65625 31.582031 52.65625 33.230469 C 54.199219 33.230469 55.710938 33.199219 57.214844 33.246094 C 57.875 33.269531 58.382812 33.125 58.832031 32.527344 Z M 58.832031 32.527344 "/>
<path style=" stroke:none;fill-rule:nonzero;fill:rgb(100%,100%,100%);fill-opacity:1;" d="M 98.523438 34.628906 C 98.226562 34.1875 97.839844 34.121094 97.375 34.128906 C 95.996094 34.15625 94.617188 34.152344 93.238281 34.125 C 92.996094 34.121094 92.707031 33.988281 92.523438 33.820312 C 91.976562 33.328125 91.273438 32.871094 91.015625 32.242188 C 90.753906 31.613281 91.023438 30.785156 90.933594 30.058594 C 90.792969 28.945312 91.1875 28.160156 92.007812 27.417969 C 92.589844 26.890625 93.109375 26.59375 93.917969 26.632812 C 95.386719 26.707031 96.863281 26.644531 98.335938 26.664062 C 98.550781 26.667969 98.789062 26.785156 98.96875 26.917969 C 99.207031 27.09375 99.378906 27.363281 99.617188 27.542969 C 100.4375 28.164062 100.832031 28.941406 100.523438 30.019531 C 99.988281 30.019531 99.398438 30.019531 98.90625 30.019531 C 98.761719 29.589844 98.691406 29.171875 98.492188 28.828125 C 98.195312 28.3125 97.691406 28.199219 97.097656 28.226562 C 96.058594 28.277344 95.019531 28.238281 93.980469 28.242188 C 93.445312 28.242188 92.765625 28.921875 92.761719 29.457031 C 92.761719 29.984375 92.789062 30.515625 92.753906 31.042969 C 92.722656 31.507812 92.847656 31.851562 93.210938 32.171875 C 93.492188 32.421875 93.742188 32.570312 94.140625 32.5625 C 95.554688 32.535156 96.972656 32.539062 98.390625 32.5625 C 98.636719 32.570312 98.929688 32.6875 99.113281 32.851562 C 99.660156 33.34375 100.363281 33.800781 100.625 34.429688 C 100.886719 35.058594 100.617188 35.886719 100.71875 36.609375 C 100.914062 37.992188 100.464844 39.023438 99.371094 39.875 C 98.964844 40.191406 98.625 40.402344 98.09375 40.390625 C 96.433594 40.355469 94.769531 40.386719 93.105469 40.363281 C 92.878906 40.363281 92.621094 40.234375 92.433594 40.089844 C 92.148438 39.871094 91.949219 39.546875 91.660156 39.34375 C 90.8125 38.757812 90.710938 37.941406 90.882812 37 C 91.449219 37 92.023438 37 92.664062 37 C 92.5 37.761719 92.78125 38.3125 93.464844 38.640625 C 93.605469 38.710938 93.765625 38.78125 93.917969 38.78125 C 95.183594 38.792969 96.453125 38.792969 97.71875 38.789062 C 98.203125 38.785156 98.882812 38.082031 98.886719 37.585938 C 98.890625 36.867188 98.914062 36.144531 98.871094 35.429688 C 98.855469 35.167969 98.664062 34.917969 98.523438 34.628906 Z M 98.523438 34.628906 "/>
<path style=" stroke:none;fill-rule:nonzero;fill:rgb(100%,100%,100%);fill-opacity:1;" d="M 83.351562 35.386719 C 83.351562 37.066406 83.351562 38.6875 83.351562 40.34375 C 82.792969 40.34375 82.257812 40.34375 81.660156 40.34375 C 81.660156 39.84375 81.660156 39.332031 81.660156 38.816406 C 81.617188 38.792969 81.574219 38.765625 81.53125 38.742188 C 81.101562 39.171875 80.660156 39.585938 80.25 40.027344 C 80.015625 40.277344 79.78125 40.398438 79.425781 40.386719 C 78.519531 40.355469 77.609375 40.402344 76.707031 40.363281 C 76.445312 40.351562 76.167969 40.191406 75.941406 40.039062 C 74.605469 39.148438 74.183594 37.90625 74.367188 36.320312 C 74.496094 35.183594 74.378906 34.019531 74.402344 32.867188 C 74.40625 32.65625 74.511719 32.398438 74.65625 32.242188 C 75.167969 31.6875 75.632812 30.96875 76.277344 30.695312 C 76.898438 30.425781 77.722656 30.625 78.457031 30.625 C 80.058594 30.621094 80.058594 30.621094 81.523438 31.859375 C 81.523438 30.042969 81.523438 28.261719 81.523438 26.457031 C 82.140625 26.457031 82.71875 26.457031 83.351562 26.457031 C 83.351562 29.414062 83.351562 32.371094 83.351562 35.386719 M 81.535156 35.667969 C 81.535156 35.136719 81.542969 34.609375 81.53125 34.082031 C 81.53125 33.941406 81.527344 33.75 81.441406 33.667969 C 80.957031 33.207031 80.460938 32.757812 79.945312 32.335938 C 79.820312 32.234375 79.597656 32.21875 79.421875 32.214844 C 78.761719 32.203125 78.101562 32.207031 77.441406 32.210938 C 76.875 32.214844 76.207031 32.890625 76.207031 33.464844 C 76.203125 34.726562 76.207031 35.992188 76.207031 37.257812 C 76.207031 38.234375 76.757812 38.789062 77.726562 38.789062 C 77.859375 38.789062 77.996094 38.769531 78.125 38.792969 C 79.21875 38.976562 80.015625 38.566406 80.765625 37.738281 C 81.3125 37.140625 81.671875 36.589844 81.535156 35.667969 Z M 81.535156 35.667969 "/>
<path style=" stroke:none;fill-rule:nonzero;fill:rgb(100%,100%,100%);fill-opacity:1;" d="M 163.414062 36.066406 C 162.261719 36.066406 161.167969 36.066406 160.011719 36.066406 C 160.011719 36.667969 159.988281 37.246094 160.019531 37.824219 C 160.035156 38.15625 160.84375 38.785156 161.191406 38.789062 C 162.0625 38.792969 162.929688 38.789062 163.800781 38.789062 C 164.613281 38.789062 165.214844 38.203125 165.238281 37.316406 C 165.527344 37.316406 165.820312 37.316406 166.113281 37.316406 C 166.410156 37.316406 166.707031 37.316406 166.988281 37.316406 C 167.167969 38.097656 166.90625 38.617188 166.402344 39.199219 C 165.589844 40.140625 164.699219 40.523438 163.46875 40.398438 C 162.476562 40.296875 161.46875 40.378906 160.464844 40.375 C 159.863281 40.375 158.195312 38.695312 158.195312 38.089844 C 158.195312 36.371094 158.183594 34.648438 158.207031 32.929688 C 158.210938 32.6875 158.335938 32.390625 158.5 32.210938 C 158.992188 31.664062 159.449219 30.960938 160.078125 30.695312 C 160.703125 30.433594 161.523438 30.628906 162.257812 30.625 C 162.484375 30.621094 162.714844 30.621094 162.941406 30.625 C 163.675781 30.625 164.503906 30.417969 165.125 30.6875 C 165.785156 30.972656 166.257812 31.707031 166.792969 32.257812 C 166.914062 32.378906 167.027344 32.566406 167.03125 32.722656 C 167.050781 33.816406 167.042969 34.910156 167.042969 36.066406 C 165.835938 36.066406 164.652344 36.066406 163.414062 36.066406 M 160.316406 34.59375 C 161.945312 34.59375 163.578125 34.59375 165.226562 34.59375 C 165.226562 34.148438 165.230469 33.773438 165.226562 33.398438 C 165.21875 32.90625 164.535156 32.214844 164.042969 32.210938 C 163.082031 32.207031 162.121094 32.207031 161.160156 32.214844 C 161.039062 32.214844 160.894531 32.226562 160.796875 32.289062 C 160.136719 32.703125 159.777344 33.808594 160.058594 34.542969 C 160.070312 34.574219 160.15625 34.578125 160.316406 34.59375 Z M 160.316406 34.59375 "/>
<path style=" stroke:none;fill-rule:nonzero;fill:rgb(100%,100%,100%);fill-opacity:1;" d="M 132.964844 32.324219 C 133.5625 31.742188 134.035156 30.984375 134.710938 30.691406 C 135.347656 30.414062 136.195312 30.625 136.949219 30.625 C 137.195312 30.621094 137.441406 30.621094 137.6875 30.621094 C 139.933594 30.621094 139.9375 30.621094 141.453125 32.320312 C 141.5625 32.445312 141.628906 32.644531 141.632812 32.8125 C 141.648438 33.871094 141.640625 34.925781 141.640625 36.046875 C 139.308594 36.046875 136.980469 36.046875 134.609375 36.046875 C 134.609375 36.648438 134.464844 37.246094 134.648438 37.71875 C 134.816406 38.148438 135.300781 38.679688 135.707031 38.742188 C 136.6875 38.890625 137.703125 38.796875 138.703125 38.785156 C 139.238281 38.78125 139.8125 38.042969 139.835938 37.339844 C 140.414062 37.339844 140.992188 37.339844 141.605469 37.339844 C 141.710938 38.023438 141.585938 38.546875 141.070312 39.132812 C 140.214844 40.113281 139.289062 40.539062 137.996094 40.398438 C 137.042969 40.292969 136.070312 40.398438 135.109375 40.363281 C 134.847656 40.351562 134.570312 40.191406 134.34375 40.039062 C 133.007812 39.148438 132.582031 37.90625 132.769531 36.320312 C 132.898438 35.203125 132.789062 34.058594 132.800781 32.925781 C 132.800781 32.734375 132.882812 32.542969 132.964844 32.324219 M 134.609375 33.347656 C 134.609375 33.753906 134.609375 34.160156 134.609375 34.5625 C 136.378906 34.5625 138.085938 34.5625 139.832031 34.5625 C 139.761719 33.824219 140.09375 33.011719 139.269531 32.515625 C 139.046875 32.378906 138.792969 32.234375 138.542969 32.222656 C 137.699219 32.1875 136.847656 32.210938 136 32.210938 C 135.390625 32.210938 134.839844 32.621094 134.609375 33.347656 Z M 134.609375 33.347656 "/>
<path style=" stroke:none;fill-rule:nonzero;fill:rgb(100%,100%,100%);fill-opacity:1;" d="M 69.8125 40.378906 C 68.363281 40.378906 66.964844 40.390625 65.566406 40.363281 C 65.324219 40.359375 65.035156 40.226562 64.851562 40.058594 C 64.308594 39.566406 63.605469 39.109375 63.34375 38.480469 C 63.085938 37.847656 63.28125 37.03125 63.277344 36.292969 C 63.277344 35.160156 63.261719 34.023438 63.292969 32.890625 C 63.296875 32.664062 63.414062 32.386719 63.570312 32.21875 C 64.082031 31.667969 64.550781 30.964844 65.195312 30.6875 C 65.800781 30.425781 66.609375 30.625 67.328125 30.625 C 67.570312 30.621094 67.816406 30.621094 68.0625 30.625 C 68.796875 30.628906 69.628906 30.425781 70.242188 30.699219 C 70.902344 30.996094 71.371094 31.730469 71.902344 32.292969 C 72.015625 32.410156 72.113281 32.605469 72.113281 32.765625 C 72.132812 33.839844 72.125 34.917969 72.125 36.039062 C 69.792969 36.039062 67.480469 36.039062 65.09375 36.039062 C 65.09375 36.65625 65.074219 37.234375 65.101562 37.8125 C 65.117188 38.144531 65.914062 38.785156 66.265625 38.789062 C 67.058594 38.792969 67.859375 38.71875 68.640625 38.808594 C 69.355469 38.894531 69.785156 38.554688 70.160156 38.074219 C 70.300781 37.890625 70.304688 37.601562 70.378906 37.335938 C 70.921875 37.335938 71.5 37.335938 72.070312 37.335938 C 72.257812 38.089844 72.109375 38.695312 71.46875 39.175781 C 71.113281 39.445312 70.84375 39.828125 70.496094 40.117188 C 70.328125 40.257812 70.078125 40.292969 69.8125 40.378906 M 65.671875 32.476562 C 64.828125 32.996094 65.148438 33.8125 65.085938 34.59375 C 66 34.59375 66.859375 34.59375 67.722656 34.59375 C 68.582031 34.59375 69.441406 34.59375 70.308594 34.59375 C 70.308594 34.136719 70.3125 33.761719 70.308594 33.382812 C 70.300781 32.894531 69.605469 32.214844 69.109375 32.210938 C 68.167969 32.207031 67.222656 32.199219 66.28125 32.21875 C 66.097656 32.222656 65.921875 32.351562 65.671875 32.476562 Z M 65.671875 32.476562 "/>
<path style=" stroke:none;fill-rule:nonzero;fill:rgb(100%,100%,100%);fill-opacity:1;" d="M 180.082031 28.015625 C 180.082031 27.46875 180.082031 26.980469 180.082031 26.460938 C 180.679688 26.460938 181.257812 26.460938 181.871094 26.460938 C 181.871094 28.421875 181.871094 30.398438 181.871094 32.371094 C 181.914062 32.398438 181.953125 32.425781 181.992188 32.453125 C 182.464844 31.960938 182.957031 31.484375 183.40625 30.972656 C 183.65625 30.691406 183.925781 30.605469 184.289062 30.617188 C 185.003906 30.640625 185.722656 30.601562 186.441406 30.636719 C 186.671875 30.648438 186.941406 30.761719 187.109375 30.917969 C 187.652344 31.414062 188.355469 31.867188 188.621094 32.496094 C 188.882812 33.125 188.699219 33.941406 188.699219 34.679688 C 188.703125 36.5625 188.699219 38.445312 188.699219 40.355469 C 188.082031 40.355469 187.507812 40.355469 186.886719 40.355469 C 186.886719 38.65625 186.886719 36.980469 186.886719 35.304688 C 186.886719 34.757812 186.863281 34.207031 186.894531 33.664062 C 186.917969 33.238281 186.785156 32.9375 186.480469 32.628906 C 186.160156 32.308594 185.835938 32.230469 185.398438 32.191406 C 184.484375 32.109375 183.871094 32.460938 183.183594 33.070312 C 182.167969 33.980469 181.746094 34.945312 181.871094 36.304688 C 181.992188 37.632812 181.898438 38.976562 181.898438 40.347656 C 181.292969 40.347656 180.71875 40.347656 180.082031 40.347656 C 180.082031 36.257812 180.082031 32.164062 180.082031 28.015625 Z M 180.082031 28.015625 "/>
<path style=" stroke:none;fill-rule:nonzero;fill:rgb(100%,100%,100%);fill-opacity:1;" d="M 111.699219 34.480469 C 111.699219 36.460938 111.699219 38.382812 111.699219 40.34375 C 111.144531 40.34375 110.605469 40.34375 110.027344 40.34375 C 110.027344 39.746094 110.027344 39.132812 110.027344 38.519531 C 109.976562 38.476562 109.921875 38.4375 109.867188 38.398438 C 109.355469 38.953125 108.859375 39.527344 108.316406 40.054688 C 108.140625 40.222656 107.847656 40.351562 107.605469 40.363281 C 106.851562 40.402344 106.09375 40.394531 105.339844 40.367188 C 105.125 40.355469 104.867188 40.261719 104.710938 40.117188 C 104.15625 39.609375 103.433594 39.144531 103.164062 38.5 C 102.894531 37.855469 103.085938 37.019531 103.082031 36.265625 C 103.082031 34.398438 103.082031 32.535156 103.082031 30.648438 C 103.699219 30.648438 104.273438 30.648438 104.898438 30.648438 C 104.898438 32.359375 104.898438 34.050781 104.898438 35.746094 C 104.898438 36.292969 104.921875 36.84375 104.890625 37.386719 C 104.867188 37.773438 104.976562 38.050781 105.265625 38.320312 C 105.984375 38.996094 107.34375 39.007812 108.050781 38.300781 C 108.660156 37.6875 109.503906 37.167969 109.8125 36.425781 C 110.117188 35.683594 109.886719 34.71875 109.886719 33.847656 C 109.886719 32.792969 109.886719 31.738281 109.886719 30.652344 C 110.488281 30.652344 111.0625 30.652344 111.699219 30.652344 C 111.699219 31.90625 111.699219 33.164062 111.699219 34.480469 Z M 111.699219 34.480469 "/>
<path style=" stroke:none;fill-rule:nonzero;fill:rgb(100%,100%,100%);fill-opacity:1;" d="M 176.113281 33.289062 C 175.867188 32.605469 175.328125 32.210938 174.710938 32.210938 C 174.070312 32.210938 173.417969 32.28125 172.789062 32.191406 C 172.078125 32.089844 171.660156 32.457031 171.269531 32.921875 C 171.175781 33.035156 171.132812 33.222656 171.128906 33.375 C 171.121094 34.792969 171.121094 36.207031 171.125 37.625 C 171.128906 38.109375 171.832031 38.785156 172.332031 38.789062 C 173.125 38.792969 173.917969 38.789062 174.710938 38.789062 C 175.492188 38.789062 176.105469 38.191406 176.113281 37.421875 C 176.113281 37.328125 176.113281 37.238281 176.113281 37.117188 C 176.710938 37.117188 177.289062 37.117188 177.878906 37.117188 C 178.039062 37.945312 177.878906 38.585938 177.234375 39.261719 C 176.429688 40.105469 175.613281 40.570312 174.445312 40.386719 C 174.097656 40.332031 173.730469 40.378906 173.371094 40.375 C 172.636719 40.371094 171.808594 40.574219 171.191406 40.300781 C 170.53125 40.007812 170.0625 39.273438 169.535156 38.710938 C 169.410156 38.582031 169.320312 38.363281 169.320312 38.183594 C 169.304688 36.390625 169.304688 34.59375 169.320312 32.800781 C 169.320312 32.625 169.460938 32.445312 169.539062 32.269531 C 169.542969 32.253906 169.558594 32.238281 169.574219 32.226562 C 170.109375 31.695312 170.558594 30.964844 171.203125 30.691406 C 171.828125 30.425781 172.652344 30.625 173.386719 30.625 C 173.554688 30.621094 173.726562 30.621094 173.894531 30.625 C 174.613281 30.625 175.40625 30.441406 176.027344 30.6875 C 176.621094 30.925781 177.003906 31.65625 177.546875 32.089844 C 178.195312 32.605469 177.792969 33.265625 177.96875 33.882812 C 177.320312 33.882812 176.746094 33.882812 176.113281 33.882812 C 176.113281 33.699219 176.113281 33.519531 176.113281 33.289062 Z M 176.113281 33.289062 "/>
<path style=" stroke:none;fill-rule:nonzero;fill:rgb(100%,100%,100%);fill-opacity:1;" d="M 154.226562 34.933594 C 154.226562 36.761719 154.226562 38.539062 154.226562 40.34375 C 153.628906 40.34375 153.050781 40.34375 152.433594 40.34375 C 152.433594 36.335938 152.433594 32.320312 152.433594 28.261719 C 151.019531 28.261719 149.652344 28.261719 148.25 28.261719 C 148.25 27.71875 148.25 27.21875 148.25 26.6875 C 151.574219 26.6875 154.910156 26.6875 158.277344 26.6875 C 158.277344 27.175781 158.277344 27.675781 158.277344 28.222656 C 156.953125 28.222656 155.621094 28.222656 154.226562 28.222656 C 154.226562 30.46875 154.226562 32.671875 154.226562 34.933594 Z M 154.226562 34.933594 "/>
<path style=" stroke:none;fill-rule:nonzero;fill:rgb(100%,100%,100%);fill-opacity:1;" d="M 114.421875 34.140625 C 114.421875 32.949219 114.421875 31.820312 114.421875 30.65625 C 114.984375 30.65625 115.519531 30.65625 116.121094 30.65625 C 116.121094 31.160156 116.121094 31.671875 116.121094 32.378906 C 116.6875 31.8125 117.113281 31.351562 117.585938 30.9375 C 117.773438 30.777344 118.054688 30.652344 118.304688 30.636719 C 118.996094 30.597656 119.691406 30.621094 120.410156 30.621094 C 120.410156 31.164062 120.410156 31.664062 120.410156 32.210938 C 120.320312 32.210938 120.246094 32.226562 120.179688 32.207031 C 118.382812 31.753906 117.375 32.933594 116.367188 34.078125 C 116.261719 34.195312 116.242188 34.417969 116.242188 34.59375 C 116.234375 36.5 116.238281 38.40625 116.238281 40.34375 C 115.636719 40.34375 115.0625 40.34375 114.421875 40.34375 C 114.421875 38.300781 114.421875 36.246094 114.421875 34.140625 Z M 114.421875 34.140625 "/>
</g>
</svg>
