<?xml version="1.0" encoding="UTF-8"?>
<svg xmlns="http://www.w3.org/2000/svg" xmlns:xlink="http://www.w3.org/1999/xlink" width="175px" height="63px" viewBox="0 0 175 63" version="1.1">
<g id="surface1">
<path style=" stroke:none;fill-rule:nonzero;fill:rgb(0%,0%,0%);fill-opacity:1;" d="M 27.574219 56.65625 C 26.4375 55.5 25.320312 54.324219 24.152344 53.203125 C 23.671875 52.742188 23.636719 52.210938 23.660156 51.628906 C 23.671875 51.371094 23.75 51.109375 23.75 50.851562 C 23.753906 40.441406 23.753906 30.03125 23.753906 19.621094 C 23.753906 19.441406 23.753906 19.257812 23.753906 18.957031 C 22.871094 19.847656 22.050781 20.664062 21.253906 21.5 C 21.152344 21.605469 21.152344 21.835938 21.152344 22.007812 C 21.148438 26.871094 21.132812 31.730469 21.167969 36.59375 C 21.171875 37.296875 20.707031 37.539062 20.152344 37.539062 C 17.847656 37.535156 15.542969 37.539062 13.238281 37.539062 C 12.085938 37.539062 10.933594 37.535156 9.785156 37.542969 C 9.660156 37.546875 9.496094 37.589844 9.417969 37.675781 C 8.855469 38.285156 8.1875 38.492188 7.496094 38.234375 C 6.890625 38.011719 6.515625 37.375 6.515625 36.574219 C 6.515625 36.523438 6.515625 36.472656 6.554688 36.363281 C 6.671875 36.113281 6.75 35.921875 6.828125 35.730469 C 7.675781 35 8.304688 34.960938 9.132812 35.527344 C 9.1875 35.5625 9.269531 35.597656 9.28125 35.648438 C 9.476562 36.308594 9.996094 36.234375 10.507812 36.234375 C 13.597656 36.226562 16.683594 36.230469 19.8125 36.230469 C 19.824219 36.101562 19.84375 35.976562 19.84375 35.847656 C 19.84375 31.894531 19.851562 27.9375 19.839844 23.984375 C 19.839844 23.320312 19.769531 22.660156 19.746094 21.996094 C 19.730469 21.449219 19.90625 20.996094 20.316406 20.597656 C 21.480469 19.464844 22.613281 18.304688 23.757812 17.152344 C 24.160156 16.75 24.402344 16.734375 24.917969 17.136719 C 24.996094 17.363281 25.035156 17.539062 25.074219 17.710938 C 25.070312 17.878906 25.058594 18.046875 25.058594 18.214844 C 25.058594 29.417969 25.058594 40.621094 25.050781 51.824219 C 25.050781 52.148438 25.132812 52.378906 25.371094 52.605469 C 26.054688 53.265625 26.714844 53.949219 27.460938 54.703125 C 27.460938 54.457031 27.460938 54.300781 27.460938 54.144531 C 27.460938 39.722656 27.464844 25.296875 27.457031 10.875 C 27.457031 10.496094 27.394531 10.117188 27.363281 9.742188 C 27.300781 9.019531 27.566406 8.449219 28.097656 7.957031 C 29.132812 6.988281 30.132812 5.988281 31.152344 5.003906 C 31.246094 4.914062 31.355469 4.835938 31.472656 4.785156 C 31.886719 4.605469 32.316406 4.855469 32.371094 5.304688 C 32.386719 5.4375 32.375 5.574219 32.375 5.707031 C 32.375 18.503906 32.375 31.300781 32.375 44.097656 C 32.375 44.277344 32.375 44.457031 32.375 44.78125 C 33.230469 43.910156 34.003906 43.136719 34.75 42.335938 C 34.859375 42.214844 34.875 41.972656 34.875 41.785156 C 34.878906 35.144531 34.878906 28.503906 34.878906 21.859375 C 34.878906 21.25 35.117188 20.984375 35.648438 21.042969 C 35.777344 21.054688 35.921875 21.136719 36.015625 21.230469 C 37.144531 22.351562 38.289062 23.457031 39.371094 24.621094 C 39.644531 24.914062 39.710938 25.394531 39.882812 25.867188 C 39.863281 26.117188 39.835938 26.292969 39.808594 26.46875 C 39.808594 29.703125 39.808594 32.9375 39.808594 36.199219 C 64.375 36.199219 88.9375 36.199219 113.527344 36.199219 C 113.527344 35.667969 113.527344 35.125 113.527344 34.539062 C 113.132812 34.890625 112.761719 35.246094 112.355469 35.566406 C 112.191406 35.695312 111.964844 35.808594 111.761719 35.816406 C 110.910156 35.84375 110.058594 35.828125 109.207031 35.828125 C 108.742188 35.824219 107.246094 34.316406 107.246094 33.851562 C 107.242188 32.292969 107.234375 30.730469 107.257812 29.171875 C 107.257812 28.972656 107.375 28.730469 107.511719 28.578125 C 107.949219 28.097656 108.351562 27.472656 108.90625 27.238281 C 109.460938 27.003906 110.195312 27.242188 110.835938 27.15625 C 111.839844 27.027344 112.609375 27.332031 113.191406 28.15625 C 113.289062 28.292969 113.4375 28.394531 113.644531 28.59375 C 113.644531 28.050781 113.644531 27.640625 113.644531 27.203125 C 114.152344 27.203125 114.628906 27.203125 115.144531 27.203125 C 115.144531 30.183594 115.144531 33.175781 115.144531 36.203125 C 115.324219 36.214844 115.46875 36.230469 115.613281 36.230469 C 133.085938 36.230469 150.554688 36.230469 168.027344 36.234375 C 168.261719 36.234375 168.441406 36.21875 168.59375 35.984375 C 169.179688 35.074219 170.335938 35.007812 171.152344 35.855469 C 171.289062 36.082031 171.382812 36.257812 171.480469 36.433594 C 171.535156 37.144531 171.425781 37.757812 170.734375 38.164062 C 170.011719 38.585938 169.195312 38.519531 168.683594 37.867188 C 168.472656 37.59375 168.246094 37.53125 167.941406 37.535156 C 166.871094 37.542969 165.800781 37.539062 164.734375 37.539062 C 148.414062 37.539062 132.09375 37.539062 115.773438 37.539062 C 115.589844 37.539062 115.40625 37.539062 115.34375 37.539062 C 115.109375 37.878906 114.925781 38.144531 114.746094 38.410156 C 114.015625 39.484375 113.011719 39.828125 111.746094 39.667969 C 111.003906 39.574219 110.242188 39.675781 109.492188 39.636719 C 109.261719 39.628906 109.011719 39.492188 108.816406 39.347656 C 108.566406 39.160156 108.367188 38.902344 108.132812 38.6875 C 107.8125 38.386719 107.5 38.089844 107.683594 37.539062 C 107.429688 37.539062 107.234375 37.539062 107.035156 37.539062 C 84.585938 37.539062 62.136719 37.539062 39.683594 37.539062 C 38.667969 37.539062 38.488281 37.355469 38.488281 36.328125 C 38.488281 32.855469 38.492188 29.382812 38.476562 25.910156 C 38.472656 25.683594 38.347656 25.40625 38.1875 25.234375 C 37.566406 24.5625 36.90625 23.921875 36.183594 23.195312 C 36.183594 23.453125 36.183594 23.625 36.183594 23.796875 C 36.183594 29.871094 36.171875 35.941406 36.199219 42.011719 C 36.203125 42.699219 35.941406 43.175781 35.492188 43.613281 C 34.503906 44.578125 33.511719 45.539062 32.515625 46.5 C 32.363281 46.644531 32.195312 46.785156 32.011719 46.882812 C 31.601562 47.101562 31.097656 46.800781 31.070312 46.335938 C 31.066406 46.21875 31.070312 46.101562 31.070312 45.984375 C 31.070312 33.203125 31.070312 20.421875 31.070312 7.5625 C 31.066406 7.4375 31.058594 7.390625 31.0625 7.308594 C 31.082031 6.972656 30.972656 6.992188 30.800781 7.164062 C 30.460938 7.507812 30.125 7.855469 29.765625 8.21875 C 29.648438 8.339844 29.554688 8.441406 29.429688 8.554688 C 29.160156 8.867188 28.921875 9.164062 28.683594 9.460938 C 28.675781 9.660156 28.667969 9.863281 28.667969 10.0625 C 28.664062 25.398438 28.664062 40.734375 28.671875 56.070312 C 28.671875 56.441406 28.59375 56.714844 28.164062 56.863281 C 27.917969 56.792969 27.746094 56.722656 27.574219 56.65625 M 109.253906 28.929688 C 108.890625 29.167969 108.828125 29.511719 108.839844 29.921875 C 108.867188 30.925781 108.886719 31.9375 108.835938 32.9375 C 108.808594 33.496094 108.984375 33.882812 109.398438 34.222656 C 109.726562 34.488281 111.800781 34.515625 112.097656 34.21875 C 112.585938 33.738281 113.242188 33.328125 113.5 32.742188 C 113.738281 32.195312 113.554688 31.457031 113.558594 30.804688 C 113.558594 30.652344 113.566406 30.5 113.554688 30.351562 C 113.550781 30.257812 113.542969 30.136719 113.484375 30.082031 C 112.695312 29.320312 112.039062 28.304688 110.691406 28.574219 C 110.464844 28.621094 110.214844 28.542969 109.992188 28.59375 C 109.753906 28.644531 109.535156 28.777344 109.253906 28.929688 M 109.671875 38.117188 C 109.820312 38.160156 109.972656 38.234375 110.125 38.238281 C 110.792969 38.25 111.464844 38.191406 112.125 38.257812 C 112.738281 38.316406 113.109375 38.046875 113.429688 37.570312 C 112.027344 37.570312 110.648438 37.570312 109.265625 37.570312 C 109.210938 37.636719 109.15625 37.703125 109.101562 37.765625 C 109.273438 37.863281 109.445312 37.957031 109.671875 38.117188 Z M 109.671875 38.117188 "/>
<path style=" stroke:none;fill-rule:nonzero;fill:rgb(0%,0%,0%);fill-opacity:1;" d="M 53.40625 35.828125 C 52.960938 35.828125 52.5625 35.828125 52.117188 35.828125 C 52.117188 34.878906 52.089844 33.960938 52.132812 33.050781 C 52.152344 32.632812 52.019531 32.308594 51.777344 32.023438 C 51.460938 31.660156 51.105469 31.328125 50.753906 30.996094 C 50.691406 30.933594 50.582031 30.902344 50.492188 30.898438 C 49.179688 30.894531 47.863281 30.894531 46.511719 30.894531 C 46.511719 32.546875 46.511719 34.164062 46.511719 35.804688 C 45.964844 35.804688 45.457031 35.804688 44.925781 35.804688 C 44.925781 31.765625 44.925781 27.734375 44.925781 23.667969 C 45.054688 23.664062 45.179688 23.652344 45.308594 23.652344 C 47.445312 23.648438 49.582031 23.644531 51.71875 23.660156 C 51.917969 23.664062 52.164062 23.769531 52.3125 23.90625 C 52.796875 24.359375 53.425781 24.777344 53.664062 25.351562 C 53.898438 25.90625 53.664062 26.640625 53.734375 27.289062 C 53.882812 28.609375 53.632812 29.730469 52.328125 30.417969 C 52.6875 30.832031 52.953125 31.1875 53.273438 31.488281 C 53.597656 31.792969 53.746094 32.121094 53.730469 32.578125 C 53.703125 33.546875 53.71875 34.519531 53.722656 35.492188 C 53.726562 35.6875 53.746094 35.875 53.40625 35.828125 M 51.996094 28.859375 C 52.039062 28.707031 52.109375 28.554688 52.113281 28.402344 C 52.125 27.648438 52.121094 26.894531 52.117188 26.140625 C 52.117188 25.667969 51.519531 25.0625 51.050781 25.058594 C 49.765625 25.058594 48.480469 25.058594 47.195312 25.058594 C 46.96875 25.058594 46.742188 25.058594 46.539062 25.058594 C 46.539062 26.574219 46.539062 28.023438 46.539062 29.488281 C 47.902344 29.488281 49.238281 29.457031 50.570312 29.5 C 51.152344 29.519531 51.601562 29.390625 51.996094 28.859375 Z M 51.996094 28.859375 "/>
<path style=" stroke:none;fill-rule:nonzero;fill:rgb(0%,0%,0%);fill-opacity:1;" d="M 87.078125 30.726562 C 86.816406 30.335938 86.472656 30.277344 86.0625 30.285156 C 84.84375 30.308594 83.625 30.304688 82.40625 30.28125 C 82.191406 30.277344 81.9375 30.15625 81.773438 30.011719 C 81.292969 29.574219 80.671875 29.167969 80.441406 28.609375 C 80.210938 28.050781 80.449219 27.316406 80.371094 26.671875 C 80.246094 25.683594 80.597656 24.988281 81.320312 24.328125 C 81.835938 23.863281 82.292969 23.597656 83.007812 23.632812 C 84.308594 23.695312 85.613281 23.640625 86.914062 23.660156 C 87.101562 23.664062 87.3125 23.765625 87.472656 23.882812 C 87.683594 24.039062 87.835938 24.28125 88.042969 24.441406 C 88.769531 24.992188 89.117188 25.679688 88.847656 26.636719 C 88.371094 26.636719 87.851562 26.636719 87.417969 26.636719 C 87.289062 26.253906 87.226562 25.882812 87.050781 25.578125 C 86.789062 25.121094 86.34375 25.023438 85.816406 25.046875 C 84.902344 25.089844 83.980469 25.058594 83.0625 25.058594 C 82.59375 25.0625 81.992188 25.664062 81.988281 26.136719 C 81.984375 26.605469 82.011719 27.078125 81.980469 27.542969 C 81.953125 27.957031 82.0625 28.261719 82.382812 28.546875 C 82.632812 28.769531 82.855469 28.898438 83.203125 28.894531 C 84.457031 28.867188 85.707031 28.871094 86.960938 28.894531 C 87.179688 28.898438 87.4375 29.003906 87.601562 29.152344 C 88.082031 29.585938 88.703125 29.992188 88.9375 30.550781 C 89.167969 31.105469 88.925781 31.84375 89.019531 32.484375 C 89.191406 33.710938 88.792969 34.625 87.828125 35.382812 C 87.46875 35.660156 87.167969 35.847656 86.699219 35.839844 C 85.230469 35.808594 83.761719 35.835938 82.292969 35.816406 C 82.089844 35.8125 81.859375 35.699219 81.695312 35.570312 C 81.445312 35.378906 81.269531 35.089844 81.011719 34.910156 C 80.261719 34.390625 80.171875 33.667969 80.324219 32.832031 C 80.824219 32.832031 81.332031 32.832031 81.902344 32.832031 C 81.753906 33.507812 82.003906 33.996094 82.605469 34.289062 C 82.734375 34.347656 82.875 34.410156 83.011719 34.414062 C 84.128906 34.421875 85.246094 34.421875 86.367188 34.417969 C 86.796875 34.414062 87.398438 33.792969 87.398438 33.347656 C 87.402344 32.710938 87.425781 32.074219 87.386719 31.4375 C 87.371094 31.207031 87.203125 30.980469 87.078125 30.726562 Z M 87.078125 30.726562 "/>
<path style=" stroke:none;fill-rule:nonzero;fill:rgb(0%,0%,0%);fill-opacity:1;" d="M 73.667969 31.398438 C 73.667969 32.890625 73.667969 34.328125 73.667969 35.796875 C 73.175781 35.796875 72.703125 35.796875 72.175781 35.796875 C 72.175781 35.355469 72.175781 34.898438 72.175781 34.441406 C 72.136719 34.421875 72.097656 34.398438 72.058594 34.378906 C 71.679688 34.757812 71.289062 35.125 70.925781 35.519531 C 70.722656 35.742188 70.515625 35.847656 70.199219 35.835938 C 69.398438 35.808594 68.59375 35.847656 67.796875 35.8125 C 67.566406 35.804688 67.320312 35.664062 67.117188 35.527344 C 65.941406 34.734375 65.566406 33.632812 65.726562 32.226562 C 65.84375 31.21875 65.738281 30.1875 65.761719 29.164062 C 65.765625 28.976562 65.855469 28.746094 65.984375 28.609375 C 66.4375 28.117188 66.847656 27.480469 67.414062 27.234375 C 67.964844 27 68.695312 27.175781 69.34375 27.171875 C 70.757812 27.171875 70.757812 27.171875 72.054688 28.269531 C 72.054688 26.65625 72.054688 25.078125 72.054688 23.472656 C 72.601562 23.472656 73.109375 23.472656 73.667969 23.472656 C 73.667969 26.101562 73.667969 28.726562 73.667969 31.398438 M 72.066406 31.648438 C 72.066406 31.179688 72.070312 30.710938 72.0625 30.242188 C 72.058594 30.117188 72.054688 29.949219 71.980469 29.875 C 71.554688 29.464844 71.113281 29.066406 70.65625 28.691406 C 70.546875 28.601562 70.351562 28.589844 70.195312 28.585938 C 69.613281 28.574219 69.027344 28.578125 68.445312 28.582031 C 67.945312 28.585938 67.355469 29.183594 67.355469 29.691406 C 67.351562 30.816406 67.355469 31.9375 67.355469 33.058594 C 67.355469 33.925781 67.84375 34.417969 68.699219 34.417969 C 68.816406 34.417969 68.933594 34.402344 69.046875 34.421875 C 70.019531 34.582031 70.722656 34.21875 71.382812 33.488281 C 71.867188 32.953125 72.1875 32.46875 72.066406 31.648438 Z M 72.066406 31.648438 "/>
<path style=" stroke:none;fill-rule:nonzero;fill:rgb(0%,0%,0%);fill-opacity:1;" d="M 144.429688 32.003906 C 143.414062 32.003906 142.449219 32.003906 141.421875 32.003906 C 141.421875 32.535156 141.40625 33.050781 141.429688 33.5625 C 141.445312 33.855469 142.160156 34.417969 142.46875 34.417969 C 143.238281 34.421875 144.003906 34.417969 144.773438 34.417969 C 145.492188 34.417969 146.023438 33.898438 146.042969 33.109375 C 146.296875 33.109375 146.558594 33.109375 146.816406 33.109375 C 147.078125 33.109375 147.34375 33.109375 147.589844 33.109375 C 147.75 33.804688 147.515625 34.265625 147.074219 34.78125 C 146.355469 35.617188 145.566406 35.957031 144.480469 35.84375 C 143.601562 35.757812 142.710938 35.828125 141.828125 35.828125 C 141.292969 35.824219 139.820312 34.335938 139.820312 33.796875 C 139.820312 32.273438 139.808594 30.746094 139.832031 29.222656 C 139.835938 29.003906 139.941406 28.742188 140.089844 28.578125 C 140.523438 28.09375 140.925781 27.472656 141.480469 27.238281 C 142.035156 27.003906 142.761719 27.175781 143.410156 27.171875 C 143.613281 27.171875 143.8125 27.171875 144.011719 27.171875 C 144.664062 27.175781 145.394531 26.992188 145.945312 27.230469 C 146.527344 27.484375 146.945312 28.132812 147.417969 28.625 C 147.523438 28.730469 147.625 28.894531 147.628906 29.035156 C 147.644531 30.007812 147.636719 30.976562 147.636719 32.003906 C 146.570312 32.003906 145.527344 32.003906 144.429688 32.003906 M 141.691406 30.695312 C 143.132812 30.695312 144.574219 30.695312 146.035156 30.695312 C 146.035156 30.300781 146.035156 29.96875 146.03125 29.636719 C 146.027344 29.199219 145.421875 28.585938 144.988281 28.582031 C 144.140625 28.578125 143.289062 28.578125 142.441406 28.585938 C 142.332031 28.585938 142.207031 28.597656 142.117188 28.652344 C 141.535156 29.015625 141.214844 30 141.464844 30.652344 C 141.476562 30.679688 141.550781 30.679688 141.691406 30.695312 Z M 141.691406 30.695312 "/>
<path style=" stroke:none;fill-rule:nonzero;fill:rgb(0%,0%,0%);fill-opacity:1;" d="M 117.519531 28.679688 C 118.046875 28.164062 118.464844 27.492188 119.0625 27.230469 C 119.625 26.988281 120.375 27.175781 121.042969 27.171875 C 121.257812 27.171875 121.476562 27.171875 121.691406 27.171875 C 123.679688 27.171875 123.683594 27.171875 125.023438 28.679688 C 125.117188 28.789062 125.175781 28.96875 125.179688 29.113281 C 125.191406 30.054688 125.1875 30.992188 125.1875 31.984375 C 123.125 31.984375 121.070312 31.984375 118.972656 31.984375 C 118.972656 32.519531 118.847656 33.050781 119.007812 33.46875 C 119.15625 33.847656 119.582031 34.320312 119.945312 34.375 C 120.808594 34.507812 121.707031 34.425781 122.589844 34.414062 C 123.0625 34.410156 123.574219 33.757812 123.59375 33.132812 C 124.101562 33.132812 124.613281 33.132812 125.15625 33.132812 C 125.25 33.738281 125.136719 34.203125 124.683594 34.722656 C 123.929688 35.59375 123.109375 35.972656 121.964844 35.847656 C 121.125 35.753906 120.265625 35.847656 119.414062 35.8125 C 119.183594 35.804688 118.9375 35.664062 118.738281 35.527344 C 117.558594 34.734375 117.183594 33.632812 117.347656 32.226562 C 117.460938 31.234375 117.363281 30.21875 117.375 29.214844 C 117.375 29.042969 117.449219 28.875 117.519531 28.679688 M 118.972656 29.589844 C 118.972656 29.949219 118.972656 30.3125 118.972656 30.667969 C 120.535156 30.667969 122.046875 30.667969 123.589844 30.667969 C 123.527344 30.011719 123.820312 29.292969 123.09375 28.851562 C 122.898438 28.730469 122.667969 28.601562 122.449219 28.59375 C 121.703125 28.5625 120.953125 28.582031 120.203125 28.582031 C 119.664062 28.582031 119.175781 28.945312 118.972656 29.589844 Z M 118.972656 29.589844 "/>
<path style=" stroke:none;fill-rule:nonzero;fill:rgb(0%,0%,0%);fill-opacity:1;" d="M 61.703125 35.828125 C 60.421875 35.828125 59.1875 35.839844 57.949219 35.816406 C 57.734375 35.8125 57.480469 35.691406 57.316406 35.542969 C 56.835938 35.105469 56.214844 34.703125 55.988281 34.144531 C 55.757812 33.585938 55.929688 32.855469 55.929688 32.203125 C 55.925781 31.195312 55.914062 30.191406 55.9375 29.183594 C 55.945312 28.980469 56.046875 28.738281 56.183594 28.589844 C 56.636719 28.101562 57.054688 27.476562 57.625 27.230469 C 58.160156 26.996094 58.871094 27.175781 59.503906 27.171875 C 59.722656 27.171875 59.941406 27.171875 60.15625 27.171875 C 60.808594 27.179688 61.539062 26.996094 62.085938 27.242188 C 62.667969 27.5 63.078125 28.15625 63.550781 28.652344 C 63.652344 28.757812 63.734375 28.929688 63.738281 29.074219 C 63.753906 30.027344 63.746094 30.984375 63.746094 31.976562 C 61.6875 31.976562 59.640625 31.976562 57.53125 31.976562 C 57.53125 32.527344 57.515625 33.039062 57.539062 33.550781 C 57.550781 33.847656 58.257812 34.417969 58.566406 34.417969 C 59.269531 34.421875 59.976562 34.355469 60.667969 34.4375 C 61.300781 34.511719 61.679688 34.210938 62.007812 33.785156 C 62.132812 33.621094 62.136719 33.367188 62.203125 33.128906 C 62.683594 33.128906 63.195312 33.128906 63.699219 33.128906 C 63.863281 33.796875 63.734375 34.335938 63.167969 34.761719 C 62.851562 35 62.613281 35.34375 62.304688 35.597656 C 62.160156 35.722656 61.9375 35.753906 61.703125 35.828125 M 58.042969 28.816406 C 57.300781 29.277344 57.578125 30.003906 57.527344 30.695312 C 58.332031 30.695312 59.09375 30.695312 59.855469 30.695312 C 60.617188 30.695312 61.375 30.695312 62.140625 30.695312 C 62.140625 30.292969 62.144531 29.957031 62.140625 29.621094 C 62.136719 29.191406 61.519531 28.585938 61.082031 28.582031 C 60.25 28.578125 59.414062 28.570312 58.582031 28.589844 C 58.421875 28.59375 58.261719 28.703125 58.042969 28.816406 Z M 58.042969 28.816406 "/>
<path style=" stroke:none;fill-rule:nonzero;fill:rgb(0%,0%,0%);fill-opacity:1;" d="M 159.164062 24.859375 C 159.164062 24.375 159.164062 23.941406 159.164062 23.476562 C 159.691406 23.476562 160.199219 23.476562 160.746094 23.476562 C 160.746094 25.21875 160.746094 26.972656 160.746094 28.722656 C 160.78125 28.746094 160.816406 28.773438 160.851562 28.796875 C 161.269531 28.359375 161.703125 27.9375 162.101562 27.484375 C 162.320312 27.234375 162.5625 27.15625 162.882812 27.167969 C 163.515625 27.1875 164.152344 27.152344 164.785156 27.183594 C 164.988281 27.195312 165.222656 27.296875 165.375 27.4375 C 165.855469 27.875 166.476562 28.277344 166.710938 28.835938 C 166.941406 29.390625 166.777344 30.117188 166.78125 30.769531 C 166.78125 32.441406 166.78125 34.113281 166.78125 35.808594 C 166.234375 35.808594 165.726562 35.808594 165.175781 35.808594 C 165.175781 34.300781 165.175781 32.816406 165.175781 31.328125 C 165.175781 30.839844 165.15625 30.355469 165.183594 29.871094 C 165.207031 29.492188 165.089844 29.226562 164.820312 28.953125 C 164.535156 28.667969 164.246094 28.597656 163.863281 28.5625 C 163.054688 28.488281 162.511719 28.800781 161.90625 29.34375 C 161.007812 30.152344 160.632812 31.007812 160.746094 32.214844 C 160.851562 33.390625 160.765625 34.585938 160.765625 35.800781 C 160.234375 35.800781 159.726562 35.800781 159.164062 35.800781 C 159.164062 32.171875 159.164062 28.539062 159.164062 24.859375 Z M 159.164062 24.859375 "/>
<path style=" stroke:none;fill-rule:nonzero;fill:rgb(0%,0%,0%);fill-opacity:1;" d="M 98.726562 30.59375 C 98.726562 32.351562 98.726562 34.058594 98.726562 35.796875 C 98.234375 35.796875 97.757812 35.796875 97.246094 35.796875 C 97.246094 35.265625 97.246094 34.722656 97.246094 34.179688 C 97.199219 34.140625 97.152344 34.105469 97.105469 34.070312 C 96.652344 34.5625 96.214844 35.074219 95.734375 35.539062 C 95.578125 35.691406 95.320312 35.804688 95.105469 35.816406 C 94.4375 35.851562 93.769531 35.84375 93.101562 35.816406 C 92.914062 35.808594 92.683594 35.726562 92.546875 35.597656 C 92.058594 35.144531 91.417969 34.734375 91.179688 34.164062 C 90.941406 33.589844 91.109375 32.847656 91.109375 32.179688 C 91.105469 30.523438 91.109375 28.871094 91.109375 27.195312 C 91.652344 27.195312 92.160156 27.195312 92.710938 27.195312 C 92.710938 28.710938 92.710938 30.214844 92.710938 31.71875 C 92.710938 32.203125 92.734375 32.691406 92.703125 33.175781 C 92.683594 33.519531 92.78125 33.761719 93.035156 34.003906 C 93.671875 34.601562 94.875 34.613281 95.496094 33.984375 C 96.039062 33.441406 96.785156 32.980469 97.054688 32.324219 C 97.324219 31.664062 97.121094 30.804688 97.121094 30.035156 C 97.121094 29.097656 97.121094 28.164062 97.121094 27.199219 C 97.652344 27.199219 98.160156 27.199219 98.726562 27.199219 C 98.726562 28.3125 98.726562 29.429688 98.726562 30.59375 Z M 98.726562 30.59375 "/>
<path style=" stroke:none;fill-rule:nonzero;fill:rgb(0%,0%,0%);fill-opacity:1;" d="M 155.65625 29.539062 C 155.4375 28.933594 154.960938 28.582031 154.417969 28.582031 C 153.851562 28.582031 153.273438 28.644531 152.71875 28.566406 C 152.085938 28.476562 151.71875 28.800781 151.375 29.210938 C 151.289062 29.3125 151.253906 29.476562 151.25 29.613281 C 151.242188 30.871094 151.242188 32.128906 151.246094 33.382812 C 151.25 33.816406 151.871094 34.414062 152.3125 34.417969 C 153.015625 34.421875 153.714844 34.417969 154.417969 34.417969 C 155.109375 34.417969 155.648438 33.886719 155.65625 33.203125 C 155.65625 33.121094 155.65625 33.042969 155.65625 32.933594 C 156.183594 32.933594 156.695312 32.933594 157.214844 32.933594 C 157.359375 33.667969 157.214844 34.238281 156.648438 34.835938 C 155.933594 35.585938 155.214844 36 154.183594 35.835938 C 153.871094 35.785156 153.550781 35.828125 153.230469 35.828125 C 152.582031 35.824219 151.851562 36.003906 151.304688 35.761719 C 150.722656 35.5 150.308594 34.847656 149.839844 34.347656 C 149.730469 34.234375 149.652344 34.039062 149.652344 33.878906 C 149.636719 32.289062 149.636719 30.695312 149.652344 29.105469 C 149.652344 28.949219 149.777344 28.789062 149.84375 28.632812 C 149.851562 28.617188 149.863281 28.605469 149.875 28.59375 C 150.347656 28.125 150.746094 27.476562 151.316406 27.230469 C 151.867188 26.996094 152.59375 27.175781 153.246094 27.171875 C 153.394531 27.171875 153.546875 27.171875 153.695312 27.171875 C 154.332031 27.175781 155.03125 27.007812 155.578125 27.230469 C 156.105469 27.441406 156.441406 28.089844 156.921875 28.472656 C 157.496094 28.933594 157.140625 29.519531 157.296875 30.066406 C 156.722656 30.066406 156.214844 30.066406 155.65625 30.066406 C 155.65625 29.902344 155.65625 29.742188 155.65625 29.539062 Z M 155.65625 29.539062 "/>
<path style=" stroke:none;fill-rule:nonzero;fill:rgb(0%,0%,0%);fill-opacity:1;" d="M 136.3125 30.996094 C 136.3125 32.621094 136.3125 34.195312 136.3125 35.796875 C 135.78125 35.796875 135.273438 35.796875 134.726562 35.796875 C 134.726562 32.242188 134.726562 28.679688 134.726562 25.078125 C 133.476562 25.078125 132.265625 25.078125 131.027344 25.078125 C 131.027344 24.59375 131.027344 24.152344 131.027344 23.679688 C 133.96875 23.679688 136.914062 23.679688 139.890625 23.679688 C 139.890625 24.113281 139.890625 24.558594 139.890625 25.042969 C 138.722656 25.042969 137.546875 25.042969 136.3125 25.042969 C 136.3125 27.035156 136.3125 28.992188 136.3125 30.996094 Z M 136.3125 30.996094 "/>
<path style=" stroke:none;fill-rule:nonzero;fill:rgb(0%,0%,0%);fill-opacity:1;" d="M 101.132812 30.292969 C 101.132812 29.238281 101.132812 28.234375 101.132812 27.203125 C 101.628906 27.203125 102.101562 27.203125 102.628906 27.203125 C 102.628906 27.648438 102.628906 28.105469 102.628906 28.730469 C 103.132812 28.226562 103.511719 27.816406 103.925781 27.453125 C 104.09375 27.308594 104.34375 27.199219 104.5625 27.183594 C 105.171875 27.148438 105.789062 27.171875 106.421875 27.171875 C 106.421875 27.652344 106.421875 28.097656 106.421875 28.582031 C 106.34375 28.582031 106.277344 28.59375 106.21875 28.578125 C 104.628906 28.175781 103.742188 29.222656 102.847656 30.238281 C 102.757812 30.34375 102.738281 30.542969 102.738281 30.695312 C 102.730469 32.386719 102.734375 34.078125 102.734375 35.796875 C 102.207031 35.796875 101.695312 35.796875 101.132812 35.796875 C 101.132812 33.984375 101.132812 32.164062 101.132812 30.292969 Z M 101.132812 30.292969 "/>
</g>
</svg>
