<?xml version="1.0" encoding="UTF-8"?>
<svg xmlns="http://www.w3.org/2000/svg" xmlns:xlink="http://www.w3.org/1999/xlink" width="48px" height="px" viewBox="0 0 48 48" version="1.1">
<g id="surface1">
<path style=" stroke:none;fill-rule:nonzero;fill:rgb(0%,0%,0%);fill-opacity:1;" d="M 1.800781 9.976562 C 1.648438 10.5 1.574219 16.125 1.648438 22.5 L 1.875 34.125 L 11.851562 34.351562 L 21.75 34.574219 L 21.75 28.5 L 4.5 28.5 L 4.5 12 L 18 12 C 26.476562 12 31.5 12.300781 31.5 12.75 C 31.5 13.125 32.175781 13.5 33.074219 13.5 C 34.273438 13.5 34.574219 13.125 34.351562 11.398438 L 34.125 9.375 L 18.148438 9.148438 C 5.550781 9 2.101562 9.148438 1.800781 9.976562 Z M 19.5 30.75 C 19.5 31.125 18.824219 31.5 18 31.5 C 17.175781 31.5 16.5 31.125 16.5 30.75 C 16.5 30.300781 17.175781 30 18 30 C 18.824219 30 19.5 30.300781 19.5 30.75 Z M 19.5 30.75 "/>
<path style=" stroke:none;fill-rule:nonzero;fill:rgb(0%,0%,0%);fill-opacity:1;" d="M 6 20.25 L 6 27 L 21.75 27 L 21.75 21.449219 C 21.75 17.398438 22.050781 15.523438 22.949219 14.699219 C 24 13.574219 23.25 13.5 15.074219 13.5 L 6 13.5 Z M 6 20.25 "/>
<path style=" stroke:none;fill-rule:nonzero;fill:rgb(0%,0%,0%);fill-opacity:1;" d="M 23.773438 15.449219 C 23.476562 15.75 23.25 16.425781 23.25 17.023438 C 23.25 17.773438 25.273438 18 32.324219 18 C 40.5 18 41.324219 17.851562 41.101562 16.648438 C 40.875 15.523438 39.75 15.375 32.550781 15.148438 C 28.050781 15.074219 24.074219 15.226562 23.773438 15.449219 Z M 23.773438 15.449219 "/>
<path style=" stroke:none;fill-rule:nonzero;fill:rgb(0%,0%,0%);fill-opacity:1;" d="M 23.25 25.5 L 23.25 31.5 L 34.5 31.5 L 34.5 27.449219 C 34.5 22.726562 35.699219 21 39.074219 21 C 40.273438 21 41.25 20.625 41.25 20.25 C 41.25 19.800781 37.726562 19.5 32.25 19.5 L 23.25 19.5 Z M 23.25 25.5 "/>
<path style=" stroke:none;fill-rule:nonzero;fill:rgb(0%,0%,0%);fill-opacity:1;" d="M 36.523438 22.949219 C 36.226562 23.25 36 23.925781 36 24.523438 C 36 25.273438 37.351562 25.5 41.324219 25.5 C 45.976562 25.5 46.574219 25.351562 46.351562 24.148438 C 46.125 23.175781 45.226562 22.800781 41.550781 22.648438 C 39.074219 22.5 36.824219 22.648438 36.523438 22.949219 Z M 36.523438 22.949219 "/>
<path style=" stroke:none;fill-rule:nonzero;fill:rgb(0%,0%,0%);fill-opacity:1;" d="M 36 30.75 L 36 34.5 L 46.5 34.5 L 46.5 27 L 36 27 Z M 36 30.75 "/>
<path style=" stroke:none;fill-rule:nonzero;fill:rgb(0%,0%,0%);fill-opacity:1;" d="M 23.398438 35.773438 L 23.625 38.625 L 29.25 38.851562 L 34.949219 39.074219 L 34.648438 36 L 34.351562 33 L 23.175781 33 Z M 33.75 35.25 C 33.75 35.625 33.074219 36 32.25 36 C 31.425781 36 30.75 35.625 30.75 35.25 C 30.75 34.800781 31.425781 34.5 32.25 34.5 C 33.074219 34.5 33.75 34.800781 33.75 35.25 Z M 33.75 35.25 "/>
<path style=" stroke:none;fill-rule:nonzero;fill:rgb(0%,0%,0%);fill-opacity:1;" d="M 12.226562 37.050781 C 9.226562 38.476562 10.351562 39 16.425781 39 C 21.976562 39 22.351562 38.925781 21.976562 37.5 C 21.601562 36.226562 21 36 17.699219 36.074219 C 15.601562 36.148438 13.125 36.523438 12.226562 37.050781 Z M 12.226562 37.050781 "/>
<path style=" stroke:none;fill-rule:nonzero;fill:rgb(0%,0%,0%);fill-opacity:1;" d="M 36.148438 37.273438 C 36.375 38.398438 37.199219 38.625 41.25 38.625 C 45.300781 38.625 46.125 38.398438 46.351562 37.273438 C 46.574219 36.148438 45.976562 36 41.25 36 C 36.523438 36 35.925781 36.148438 36.148438 37.273438 Z M 36.148438 37.273438 "/>
</g>
</svg>
