<svg xmlns="http://www.w3.org/2000/svg" width="40" height="49" fill="none"><path fill="#1A1A1A" d="M39.949 12.681c-.025-1.296-.048-2.52-.048-3.704 0-.928-.746-1.68-1.666-1.68-7.126 0-12.552-2.065-17.074-6.499a1.656 1.656 0 0 0-2.324 0C14.316 5.232 8.891 7.297 1.765 7.297.845 7.297.1 8.049.1 8.977c0 1.184-.023 2.41-.048 3.705-.228 12.06-.54 28.577 19.402 35.547a1.65 1.65 0 0 0 1.092 0c19.944-6.97 19.632-23.487 19.404-35.548ZM19.999 44.86C2.895 38.594 3.154 24.87 3.383 12.746c.014-.727.028-1.433.037-2.124C10.094 10.338 15.43 8.3 20 4.286c4.568 4.013 9.906 6.052 16.58 6.336.01.691.023 1.396.037 2.123.23 12.124.488 25.849-16.618 32.114Z"/><path fill="#1A1A1A" d="m25.183 17.789-7.966 7.688-3.4-3.281a1.693 1.693 0 0 0-2.334 0 1.554 1.554 0 0 0 0 2.253l4.567 4.407c.322.31.744.466 1.167.466.422 0 .845-.155 1.167-.466l9.132-8.814a1.554 1.554 0 0 0 0-2.253 1.693 1.693 0 0 0-2.333 0Z"/></svg>