<?xml version="1.0" encoding="UTF-8"?>
<svg xmlns="http://www.w3.org/2000/svg" xmlns:xlink="http://www.w3.org/1999/xlink" width="48px" height="px" viewBox="0 0 48 48" version="1.1">
<g id="surface1">
<path style=" stroke:none;fill-rule:nonzero;fill:rgb(0%,0%,0%);fill-opacity:1;" d="M 11.519531 3.839844 C 10.609375 4.753906 10.558594 5.425781 10.558594 24 C 10.558594 42.574219 10.609375 43.246094 11.519531 44.160156 C 12.433594 45.070312 13.105469 45.121094 24 45.121094 C 34.894531 45.121094 35.566406 45.070312 36.480469 44.160156 C 37.390625 43.246094 37.441406 42.574219 37.441406 24 C 37.441406 5.425781 37.390625 4.753906 36.480469 3.839844 C 35.566406 2.929688 34.894531 2.878906 24 2.878906 C 13.105469 2.878906 12.433594 2.929688 11.519531 3.839844 Z M 24.769531 5.808594 C 25.246094 6.625 24.144531 7.535156 23.472656 6.863281 C 22.894531 6.289062 23.28125 5.28125 24 5.28125 C 24.238281 5.28125 24.574219 5.519531 24.769531 5.808594 Z M 32.640625 23.519531 L 32.640625 38.398438 L 15.359375 38.398438 L 15.359375 8.640625 L 32.640625 8.640625 Z M 27.601562 41.28125 C 27.601562 41.855469 26.832031 42.046875 24.289062 42.144531 C 20.976562 42.289062 19.726562 41.855469 20.398438 40.800781 C 20.59375 40.464844 21.984375 40.320312 24.144531 40.414062 C 26.832031 40.511719 27.601562 40.703125 27.601562 41.28125 Z M 27.601562 41.28125 "/>
</g>
</svg>
