<?xml version="1.0" encoding="UTF-8"?>
<svg xmlns="http://www.w3.org/2000/svg" xmlns:xlink="http://www.w3.org/1999/xlink" width="48px" height="px" viewBox="0 0 48 48" version="1.1">
<g id="surface1">
<path style=" stroke:none;fill-rule:nonzero;fill:rgb(0%,0%,0%);fill-opacity:1;" d="M 18.335938 4.609375 C 14.351562 5.664062 13.054688 6.625 14.398438 7.441406 C 15.121094 7.921875 14.976562 9.601562 14.160156 9.601562 C 13.777344 9.601562 13.246094 9.167969 12.960938 8.640625 C 12.191406 7.152344 11.472656 7.441406 8.496094 10.414062 C 5.519531 13.390625 5.230469 14.113281 6.71875 14.878906 C 7.246094 15.167969 7.679688 15.695312 7.679688 16.078125 C 7.679688 16.945312 6.191406 17.039062 5.425781 16.273438 C 5.136719 15.984375 4.65625 15.886719 4.414062 16.03125 C 3.792969 16.414062 2.542969 20.207031 2.113281 22.894531 L 1.824219 24.910156 L 3.648438 25.054688 C 6.238281 25.246094 6.238281 26.59375 3.695312 26.785156 L 1.824219 26.929688 L 2.160156 28.945312 C 2.542969 31.585938 3.792969 35.425781 4.367188 35.761719 C 4.609375 35.902344 5.230469 35.808594 5.808594 35.519531 C 6.574219 35.089844 6.960938 35.089844 7.390625 35.519531 C 7.777344 35.953125 7.632812 36.289062 6.863281 36.960938 C 5.472656 38.0625 5.472656 38.304688 7.054688 39.9375 C 7.96875 40.894531 8.832031 41.28125 9.9375 41.28125 C 11.328125 41.28125 11.519531 41.136719 11.519531 39.9375 C 11.519531 37.488281 11.808594 37.441406 24 37.441406 C 36.191406 37.441406 36.480469 37.488281 36.480469 39.9375 C 36.480469 41.136719 36.671875 41.28125 38.0625 41.28125 C 39.167969 41.28125 40.03125 40.894531 40.945312 39.9375 C 42.480469 38.304688 42.574219 37.632812 41.28125 36.960938 C 40.753906 36.671875 40.320312 36.144531 40.320312 35.761719 C 40.320312 34.894531 41.808594 34.800781 42.625 35.617188 C 43.007812 36 43.34375 36 43.632812 35.761719 C 44.207031 35.136719 45.40625 31.390625 45.839844 28.945312 L 46.175781 26.929688 L 44.304688 26.785156 C 41.808594 26.59375 41.761719 25.246094 44.304688 25.054688 C 45.265625 24.960938 46.078125 24.71875 46.078125 24.480469 C 46.078125 23.472656 44.976562 18.910156 44.351562 17.425781 C 43.679688 15.839844 43.632812 15.839844 42.289062 16.558594 C 41.136719 17.136719 40.800781 17.136719 40.367188 16.609375 C 39.9375 16.078125 40.078125 15.742188 41.089844 15.023438 C 42.71875 13.824219 42.335938 13.054688 38.59375 9.648438 L 35.855469 7.105469 L 35.089844 8.351562 C 34.320312 9.648438 33.40625 9.9375 32.878906 9.121094 C 32.734375 8.878906 32.929688 8.113281 33.359375 7.488281 C 34.128906 6.289062 34.128906 6.289062 32.304688 5.519531 C 30.335938 4.703125 27.121094 3.886719 25.824219 3.839844 C 25.246094 3.839844 24.960938 4.320312 24.863281 5.617188 C 24.769531 6.863281 24.480469 7.441406 24 7.441406 C 23.519531 7.441406 23.230469 6.863281 23.136719 5.617188 C 22.945312 3.550781 22.511719 3.457031 18.335938 4.609375 Z M 36.960938 18.433594 C 36.960938 18.527344 35.328125 20.0625 33.359375 21.839844 C 30.289062 24.574219 29.710938 24.910156 29.472656 24.144531 C 29.28125 23.664062 28.800781 22.894531 28.414062 22.464844 C 27.648438 21.550781 27.265625 21.792969 32.878906 19.488281 C 35.617188 18.382812 36.960938 18.046875 36.960938 18.433594 Z M 26.640625 23.28125 C 27.40625 24 27.839844 25.007812 27.839844 25.921875 C 27.839844 26.832031 27.40625 27.839844 26.640625 28.558594 C 25.921875 29.328125 24.910156 29.761719 24 29.761719 C 23.089844 29.761719 22.078125 29.328125 21.359375 28.558594 C 20.59375 27.839844 20.160156 26.832031 20.160156 25.921875 C 20.160156 25.007812 20.59375 24 21.359375 23.28125 C 22.078125 22.511719 23.089844 22.078125 24 22.078125 C 24.910156 22.078125 25.921875 22.511719 26.640625 23.28125 Z M 26.640625 23.28125 "/>
<path style=" stroke:none;fill-rule:nonzero;fill:rgb(0%,0%,0%);fill-opacity:1;" d="M 13.632812 40.03125 C 13.488281 40.414062 13.441406 41.425781 13.535156 42.335938 L 13.679688 43.921875 L 34.320312 43.921875 L 34.320312 39.601562 L 24.097656 39.457031 C 15.648438 39.359375 13.871094 39.457031 13.632812 40.03125 Z M 13.632812 40.03125 "/>
</g>
</svg>
