<?xml version="1.0" encoding="UTF-8"?>
<svg xmlns="http://www.w3.org/2000/svg" xmlns:xlink="http://www.w3.org/1999/xlink" width="113px" height="38px" viewBox="0 0 112 38" version="1.1">
<g id="surface1">
<path style=" stroke:none;fill-rule:nonzero;fill:rgb(54.901963%,59.607846%,64.313728%);fill-opacity:1;" d="M 62.472656 22.90625 L 62.328125 22.90625 C 61.566406 22.90625 61.460938 22.714844 61.460938 21.746094 L 61.460938 17.167969 L 62.472656 17.167969 C 64.667969 17.167969 65.070312 18.773438 65.070312 20.015625 C 65.070312 21.304688 64.667969 22.90625 62.472656 22.90625 M 53.574219 19.972656 L 53.574219 17.167969 L 54.4375 17.167969 C 55.386719 17.167969 55.808594 17.824219 55.808594 18.582031 C 55.808594 19.320312 55.386719 19.972656 54.4375 19.972656 Z M 62.410156 16.535156 L 58.636719 16.535156 L 58.636719 16.9375 C 59.816406 16.9375 60.007812 17.191406 60.007812 18.6875 L 60.007812 21.386719 C 60.007812 22.886719 59.816406 23.160156 58.636719 23.160156 C 57.730469 23.03125 57.117188 22.546875 56.273438 21.621094 L 55.304688 20.566406 C 56.609375 20.332031 57.304688 19.511719 57.304688 18.582031 C 57.304688 17.421875 56.316406 16.535156 54.460938 16.535156 L 50.746094 16.535156 L 50.746094 16.9375 C 51.929688 16.9375 52.117188 17.191406 52.117188 18.6875 L 52.117188 21.386719 C 52.117188 22.886719 51.929688 23.160156 50.746094 23.160156 L 50.746094 23.558594 L 54.945312 23.558594 L 54.945312 23.160156 C 53.761719 23.160156 53.574219 22.886719 53.574219 21.386719 L 53.574219 20.628906 L 53.933594 20.628906 L 56.273438 23.558594 L 62.410156 23.558594 C 65.425781 23.558594 66.734375 21.957031 66.734375 20.039062 C 66.734375 18.117188 65.425781 16.535156 62.410156 16.535156 "/>
<path style=" stroke:none;fill-rule:nonzero;fill:rgb(54.901963%,59.607846%,64.313728%);fill-opacity:1;" d="M 39 20.753906 L 40.453125 16.453125 C 40.875 15.207031 40.6875 14.847656 39.335938 14.847656 L 39.335938 14.425781 L 43.300781 14.425781 L 43.300781 14.847656 C 41.972656 14.847656 41.65625 15.164062 41.128906 16.707031 L 38.726562 23.917969 L 38.449219 23.917969 L 36.300781 17.316406 L 34.105469 23.917969 L 33.832031 23.917969 L 31.492188 16.707031 C 30.984375 15.164062 30.648438 14.847656 29.421875 14.847656 L 29.421875 14.425781 L 34.105469 14.425781 L 34.105469 14.847656 C 32.863281 14.847656 32.523438 15.144531 32.96875 16.453125 L 34.378906 20.753906 L 36.511719 14.425781 L 36.910156 14.425781 Z M 39 20.753906 "/>
<path style=" stroke:none;fill-rule:nonzero;fill:rgb(54.901963%,59.607846%,64.313728%);fill-opacity:1;" d="M 46.171875 16.917969 C 44.230469 16.917969 43.554688 18.667969 43.554688 20.039062 C 43.554688 21.429688 44.230469 23.160156 46.171875 23.160156 C 48.132812 23.160156 48.808594 21.429688 48.808594 20.039062 C 48.808594 18.667969 48.132812 16.917969 46.171875 16.917969 M 46.171875 23.835938 C 43.851562 23.835938 41.953125 22.125 41.953125 20.039062 C 41.953125 17.96875 43.851562 16.261719 46.171875 16.261719 C 48.492188 16.261719 50.390625 17.96875 50.390625 20.039062 C 50.390625 22.125 48.492188 23.835938 46.171875 23.835938 "/>
<path style=" stroke:none;fill-rule:nonzero;fill:rgb(54.901963%,59.607846%,64.313728%);fill-opacity:1;" d="M 71.480469 15.1875 L 70.277344 15.1875 L 70.277344 18.855469 L 71.480469 18.855469 C 72.660156 18.855469 73.210938 18.035156 73.210938 17.042969 C 73.210938 16.03125 72.660156 15.1875 71.480469 15.1875 M 71.945312 23.136719 L 71.945312 23.558594 L 67.113281 23.558594 L 67.113281 23.136719 C 68.527344 23.136719 68.78125 22.78125 68.78125 20.671875 L 68.78125 17.296875 C 68.78125 15.1875 68.527344 14.847656 67.113281 14.847656 L 67.113281 14.425781 L 71.480469 14.425781 C 73.652344 14.425781 74.855469 15.546875 74.855469 17.042969 C 74.855469 18.5 73.652344 19.636719 71.480469 19.636719 L 70.277344 19.636719 L 70.277344 20.671875 C 70.277344 22.78125 70.53125 23.136719 71.945312 23.136719 "/>
<path style=" stroke:none;fill-rule:nonzero;fill:rgb(54.901963%,59.607846%,64.313728%);fill-opacity:1;" d="M 78.167969 19.972656 L 78.167969 17.167969 L 79.03125 17.167969 C 79.980469 17.167969 80.402344 17.824219 80.402344 18.582031 C 80.402344 19.320312 79.980469 19.972656 79.03125 19.972656 Z M 89.34375 21.578125 L 89.238281 21.957031 C 89.050781 22.652344 88.816406 22.90625 87.320312 22.90625 L 87.023438 22.90625 C 85.925781 22.90625 85.738281 22.652344 85.738281 21.15625 L 85.738281 20.183594 C 87.382812 20.183594 87.507812 20.332031 87.507812 21.429688 L 87.910156 21.429688 L 87.910156 18.285156 L 87.507812 18.285156 C 87.507812 19.382812 87.382812 19.53125 85.738281 19.53125 L 85.738281 17.167969 L 86.898438 17.167969 C 88.394531 17.167969 88.628906 17.421875 88.816406 18.117188 L 88.921875 18.519531 L 89.261719 18.519531 L 89.113281 16.535156 L 82.910156 16.535156 L 82.910156 16.9375 C 84.09375 16.9375 84.28125 17.191406 84.28125 18.6875 L 84.28125 21.386719 C 84.28125 22.757812 84.121094 23.101562 83.191406 23.152344 C 82.304688 23.015625 81.695312 22.535156 80.867188 21.621094 L 79.894531 20.566406 C 81.203125 20.332031 81.898438 19.511719 81.898438 18.582031 C 81.898438 17.421875 80.90625 16.535156 79.050781 16.535156 L 75.339844 16.535156 L 75.339844 16.9375 C 76.519531 16.9375 76.710938 17.191406 76.710938 18.6875 L 76.710938 21.386719 C 76.710938 22.886719 76.519531 23.160156 75.339844 23.160156 L 75.339844 23.558594 L 79.535156 23.558594 L 79.535156 23.160156 C 78.355469 23.160156 78.167969 22.886719 78.167969 21.386719 L 78.167969 20.628906 L 78.523438 20.628906 L 80.867188 23.558594 L 89.535156 23.558594 L 89.660156 21.578125 Z M 89.34375 21.578125 "/>
<path style=" stroke:none;fill-rule:nonzero;fill:rgb(54.901963%,59.607846%,64.313728%);fill-opacity:1;" d="M 93.625 23.835938 C 92.78125 23.835938 92.042969 23.390625 91.726562 23.117188 C 91.621094 23.222656 91.433594 23.539062 91.390625 23.835938 L 90.988281 23.835938 L 90.988281 20.921875 L 91.410156 20.921875 C 91.582031 22.316406 92.550781 23.136719 93.792969 23.136719 C 94.46875 23.136719 95.019531 22.757812 95.019531 22.125 C 95.019531 21.578125 94.53125 21.15625 93.667969 20.753906 L 92.464844 20.183594 C 91.621094 19.785156 90.988281 19.089844 90.988281 18.160156 C 90.988281 17.148438 91.9375 16.285156 93.246094 16.285156 C 93.941406 16.285156 94.53125 16.535156 94.890625 16.832031 C 94.996094 16.746094 95.101562 16.515625 95.164062 16.261719 L 95.566406 16.261719 L 95.566406 18.75 L 95.125 18.75 C 94.976562 17.757812 94.425781 16.9375 93.308594 16.9375 C 92.71875 16.9375 92.171875 17.273438 92.171875 17.800781 C 92.171875 18.351562 92.613281 18.644531 93.625 19.109375 L 94.785156 19.679688 C 95.796875 20.164062 96.199219 20.945312 96.199219 21.578125 C 96.199219 22.90625 95.039062 23.835938 93.625 23.835938 "/>
<path style=" stroke:none;fill-rule:nonzero;fill:rgb(54.901963%,59.607846%,64.313728%);fill-opacity:1;" d="M 100.003906 23.835938 C 99.160156 23.835938 98.421875 23.390625 98.105469 23.117188 C 98 23.222656 97.808594 23.539062 97.769531 23.835938 L 97.367188 23.835938 L 97.367188 20.921875 L 97.789062 20.921875 C 97.957031 22.316406 98.929688 23.136719 100.171875 23.136719 C 100.847656 23.136719 101.394531 22.757812 101.394531 22.125 C 101.394531 21.578125 100.910156 21.15625 100.046875 20.753906 L 98.84375 20.183594 C 98 19.785156 97.367188 19.089844 97.367188 18.160156 C 97.367188 17.148438 98.316406 16.285156 99.625 16.285156 C 100.320312 16.285156 100.910156 16.535156 101.269531 16.832031 C 101.375 16.746094 101.480469 16.515625 101.542969 16.261719 L 101.945312 16.261719 L 101.945312 18.75 L 101.5 18.75 C 101.351562 17.757812 100.804688 16.9375 99.6875 16.9375 C 99.097656 16.9375 98.546875 17.273438 98.546875 17.800781 C 98.546875 18.351562 98.992188 18.644531 100.003906 19.109375 L 101.164062 19.679688 C 102.175781 20.164062 102.578125 20.945312 102.578125 21.578125 C 102.578125 22.90625 101.417969 23.835938 100.003906 23.835938 "/>
<path style=" stroke:none;fill-rule:nonzero;fill:rgb(54.901963%,59.607846%,64.313728%);fill-opacity:1;" d="M 18.984375 9.492188 C 13.742188 9.492188 9.492188 13.742188 9.492188 18.984375 C 9.492188 24.226562 13.742188 28.472656 18.984375 28.472656 C 24.226562 28.472656 28.472656 24.226562 28.472656 18.984375 C 28.472656 13.742188 24.226562 9.492188 18.984375 9.492188 M 18.984375 10.0625 C 20.1875 10.0625 21.355469 10.296875 22.457031 10.761719 C 22.984375 10.984375 23.492188 11.261719 23.972656 11.585938 C 24.445312 11.902344 24.886719 12.269531 25.292969 12.675781 C 25.695312 13.078125 26.0625 13.523438 26.382812 13.996094 C 26.703125 14.472656 26.980469 14.980469 27.203125 15.511719 C 27.667969 16.609375 27.90625 17.777344 27.90625 18.984375 C 27.90625 20.1875 27.667969 21.355469 27.203125 22.457031 C 26.980469 22.984375 26.703125 23.492188 26.382812 23.972656 C 26.0625 24.445312 25.695312 24.886719 25.292969 25.292969 C 24.886719 25.695312 24.445312 26.0625 23.972656 26.382812 C 23.492188 26.703125 22.984375 26.980469 22.457031 27.203125 C 21.355469 27.667969 20.1875 27.90625 18.984375 27.90625 C 17.777344 27.90625 16.609375 27.667969 15.511719 27.203125 C 14.980469 26.980469 14.472656 26.703125 13.996094 26.382812 C 13.523438 26.0625 13.078125 25.695312 12.675781 25.292969 C 12.269531 24.886719 11.902344 24.445312 11.585938 23.972656 C 11.261719 23.492188 10.984375 22.984375 10.761719 22.457031 C 10.296875 21.355469 10.0625 20.1875 10.0625 18.984375 C 10.0625 17.777344 10.296875 16.609375 10.761719 15.511719 C 10.984375 14.980469 11.261719 14.472656 11.585938 13.996094 C 11.902344 13.523438 12.269531 13.078125 12.675781 12.675781 C 13.078125 12.269531 13.523438 11.902344 13.996094 11.585938 C 14.472656 11.261719 14.980469 10.984375 15.511719 10.761719 C 16.609375 10.296875 17.777344 10.0625 18.984375 10.0625 "/>
<path style=" stroke:none;fill-rule:nonzero;fill:rgb(54.901963%,59.607846%,64.313728%);fill-opacity:1;" d="M 25.925781 15.1875 C 25.957031 15.441406 25.976562 15.710938 25.976562 16 C 25.976562 16.804688 25.828125 17.707031 25.375 18.835938 L 22.960938 25.820312 C 25.3125 24.449219 26.894531 21.902344 26.894531 18.984375 C 26.894531 17.609375 26.542969 16.316406 25.925781 15.1875 M 19.121094 19.675781 L 16.75 26.570312 C 17.457031 26.777344 18.207031 26.894531 18.984375 26.894531 C 19.902344 26.894531 20.789062 26.734375 21.609375 26.445312 C 21.589844 26.410156 21.570312 26.375 21.554688 26.335938 Z M 24.324219 18.582031 C 24.324219 17.605469 23.972656 16.929688 23.671875 16.402344 C 23.269531 15.75 22.894531 15.199219 22.894531 14.546875 C 22.894531 13.820312 23.445312 13.144531 24.222656 13.144531 C 24.257812 13.144531 24.289062 13.148438 24.324219 13.148438 C 22.917969 11.859375 21.042969 11.074219 18.984375 11.074219 C 16.21875 11.074219 13.789062 12.492188 12.375 14.636719 C 12.558594 14.644531 12.734375 14.648438 12.882812 14.648438 C 13.710938 14.648438 14.992188 14.546875 14.992188 14.546875 C 15.417969 14.523438 15.46875 15.148438 15.042969 15.199219 C 15.042969 15.199219 14.613281 15.25 14.136719 15.273438 L 17.015625 23.84375 L 18.75 18.652344 L 17.515625 15.273438 C 17.089844 15.25 16.6875 15.199219 16.6875 15.199219 C 16.261719 15.175781 16.308594 14.523438 16.738281 14.546875 C 16.738281 14.546875 18.042969 14.648438 18.820312 14.648438 C 19.648438 14.648438 20.929688 14.546875 20.929688 14.546875 C 21.355469 14.523438 21.40625 15.148438 20.976562 15.199219 C 20.976562 15.199219 20.550781 15.25 20.074219 15.273438 L 22.933594 23.777344 L 23.746094 21.191406 C 24.109375 20.0625 24.324219 19.261719 24.324219 18.582031 M 11.074219 18.984375 C 11.074219 22.113281 12.894531 24.820312 15.53125 26.101562 L 11.757812 15.765625 C 11.320312 16.746094 11.074219 17.835938 11.074219 18.984375 "/>
</g>
</svg>
