<svg version="1.1" id="Layer_1" xmlns="http://www.w3.org/2000/svg" xmlns:xlink="http://www.w3.org/1999/xlink" x="0px" y="0px"
	 width="100%" viewBox="0 0 1746 626" enable-background="new 0 0 1746 626" xml:space="preserve">
<path fill="none" opacity="1.000000" stroke="none" 
	d="
M1225.000000,627.000000 
	C816.666687,627.000000 408.833344,627.000000 1.000000,627.000000 
	C1.000000,418.333344 1.000000,209.666672 1.000000,1.000000 
	C583.000000,1.000000 1165.000000,1.000000 1747.000000,1.000000 
	C1747.000000,209.666672 1747.000000,418.333344 1747.000000,627.000000 
	C1573.166626,627.000000 1399.333374,627.000000 1225.000000,627.000000 
M298.641602,83.917252 
	C299.094391,83.278168 299.547211,82.639084 300.596954,81.712593 
	C303.064636,79.475060 305.532318,77.237526 308.611115,75.000000 
	C309.018524,75.000114 309.425934,75.000229 309.988190,75.926247 
	C309.992126,202.921249 309.996063,329.916260 310.000000,456.911255 
	C310.000031,458.077881 309.942078,459.247894 310.010498,460.410492 
	C310.282654,465.034424 315.303619,468.031738 319.371704,465.847565 
	C321.205139,464.863190 322.888458,463.485291 324.401855,462.037201 
	C334.350555,452.517700 344.260559,442.957245 354.127258,433.352722 
	C358.573364,429.024780 361.193207,424.282745 361.161682,417.460510 
	C360.883179,357.130646 361.000000,296.798950 361.000000,236.467804 
	C361.000000,234.748413 361.000000,233.029022 361.000000,230.489441 
	C368.211670,237.718887 374.796509,244.061478 381.021393,250.739548 
	C382.602081,252.435318 383.864349,255.193909 383.876129,257.471344 
	C384.054535,291.969177 384.000000,326.468231 384.000000,360.966980 
	C384.000000,371.171387 385.814575,372.999908 395.944275,372.999939 
	C619.936157,373.000031 843.928040,373.000000 1067.919922,373.000000 
	C1069.880615,373.000000 1071.841309,373.000000 1074.368408,373.000000 
	C1072.548584,378.472412 1075.654785,381.429474 1078.875122,384.401093 
	C1081.199463,386.546082 1083.171265,389.128815 1085.688843,390.990906 
	C1087.619873,392.419159 1090.122681,393.755310 1092.431885,393.865997 
	C1099.914429,394.224701 1107.519409,393.244415 1114.903564,394.168304 
	C1127.549316,395.750458 1137.567261,392.337250 1144.833374,381.664276 
	C1146.640625,379.009766 1148.473633,376.372833 1150.796021,373.000000 
	C1151.436279,373.000000 1153.258911,373.000000 1155.081421,373.000000 
	C1317.908813,373.000000 1480.736328,373.000000 1643.563721,373.000000 
	C1654.229980,373.000000 1664.896729,373.050018 1675.562378,372.968445 
	C1678.619873,372.945038 1680.875122,373.563782 1682.989136,376.266388 
	C1688.072998,382.765625 1696.242310,383.426636 1703.425781,379.227905 
	C1710.341675,375.185577 1711.450073,369.088654 1711.606567,361.908600 
	C1713.711426,358.095490 1712.979126,356.940948 1707.241455,355.786346 
	C1699.478271,347.860931 1687.930420,348.513550 1682.092651,357.551666 
	C1680.576416,359.899231 1678.758667,360.024170 1676.441406,360.023834 
	C1502.120605,359.997772 1327.799927,360.000549 1153.479126,359.990295 
	C1152.045166,359.990204 1150.611084,359.843781 1148.802734,359.745270 
	C1148.802734,329.669495 1148.802734,299.929688 1148.802734,270.299561 
	C1143.658203,270.299561 1138.916504,270.299561 1133.828857,270.299561 
	C1133.828857,274.663757 1133.828857,278.734467 1133.828857,284.123260 
	C1131.769043,282.156006 1130.304321,281.135101 1129.330688,279.765167 
	C1123.512085,271.577332 1115.843872,268.542816 1105.812378,269.853973 
	C1099.425903,270.688690 1092.115234,268.340881 1086.574219,270.659302 
	C1081.031128,272.978638 1077.035645,279.201324 1072.660156,283.985748 
	C1071.279175,285.495758 1070.140747,287.875336 1070.114136,289.873230 
	C1069.907349,305.369324 1069.984253,320.869507 1070.009399,336.368317 
	C1070.016968,341.002502 1084.946289,355.970734 1089.572754,355.989960 
	C1098.072021,356.025238 1106.576660,356.157928 1115.067139,355.884369 
	C1117.086670,355.819305 1119.353027,354.683472 1120.996216,353.391968 
	C1125.026733,350.223877 1128.760376,346.677795 1132.694092,343.212769 
	C1132.694092,349.014557 1132.694092,354.420990 1132.694092,359.708496 
	C887.328979,359.708496 642.269775,359.708496 397.166656,359.708496 
	C397.166656,327.278168 397.166656,295.139221 397.849518,262.908936 
	C400.606384,261.081482 403.564392,259.264801 397.816864,256.271332 
	C396.204010,252.347656 395.523071,247.553558 392.814331,244.653442 
	C382.016296,233.092560 370.608215,222.099854 359.352417,210.971207 
	C358.402222,210.031769 356.951324,209.210815 355.656036,209.076324 
	C350.383667,208.528946 348.005157,211.143829 348.004517,217.222168 
	C347.997314,283.217377 348.009766,349.212616 347.949615,415.207764 
	C347.947937,417.060364 347.810883,419.485535 346.699524,420.671875 
	C339.257050,428.616486 331.532928,436.297272 323.000000,444.979584 
	C323.000000,441.728424 323.000000,439.956085 323.000000,438.183777 
	C323.000000,311.026337 323.000031,183.868866 322.999786,56.711418 
	C322.999786,55.378189 323.130188,54.028778 322.970825,52.714680 
	C322.428223,48.241150 318.137360,45.753437 313.991669,47.546520 
	C312.834076,48.047203 311.736511,48.844151 310.821289,49.723606 
	C300.654053,59.493282 290.658295,69.445808 280.337067,79.048897 
	C275.051910,83.966293 272.390869,89.614098 273.002350,96.789635 
	C273.322205,100.542702 273.956848,104.293571 273.958130,108.045609 
	C274.007599,251.368546 274.000000,394.691498 274.000000,538.014465 
	C274.000000,539.561340 274.000000,541.108276 274.000000,543.559570 
	C266.537384,536.075012 259.958649,529.264526 253.115936,522.730469 
	C250.751175,520.472412 249.936539,518.168396 249.938660,514.962708 
	C250.012207,403.637482 249.999283,292.312225 250.006927,180.986954 
	C250.007050,179.324722 250.111099,177.662476 250.854980,175.902756 
	C253.875900,172.841110 253.568130,171.925430 248.221893,169.766754 
	C243.478012,166.299271 241.066498,166.421707 237.029373,170.453201 
	C225.600250,181.866409 214.316788,193.429550 202.707840,204.656433 
	C198.605072,208.624176 196.843246,213.136551 197.026443,218.573547 
	C197.248291,225.157501 197.939957,231.734207 197.955139,238.315140 
	C198.045761,277.614746 198.002853,316.914612 197.986969,356.214417 
	C197.986465,357.466278 197.793594,358.718048 197.687912,360.000000 
	C166.467072,360.000000 135.661102,359.953857 104.855537,360.045380 
	C99.717323,360.060669 94.551483,360.780609 92.615555,354.234558 
	C92.465111,353.725830 91.666412,353.382355 91.131073,353.017792 
	C82.853539,347.380890 76.573013,347.789978 67.341042,355.027100 
	C65.929367,356.139862 64.451096,357.188141 63.211819,358.467865 
	C63.091454,358.592133 64.448456,360.147064 65.008728,361.914612 
	C65.005890,362.414246 65.000900,362.913879 65.000542,363.413513 
	C64.994720,371.385437 68.747742,377.710144 74.800995,379.930573 
	C81.707245,382.463928 88.368134,380.436798 93.972717,374.361633 
	C94.756805,373.511688 96.375763,373.067596 97.613495,373.057220 
	C109.105469,372.960480 120.598595,373.000031 132.091385,373.000000 
	C155.076981,373.000000 178.062576,372.986938 201.048141,373.009430 
	C206.602295,373.014893 211.232498,370.584076 211.182449,363.604126 
	C210.836182,315.303558 210.990280,266.999359 211.039993,218.696350 
	C211.041763,216.982147 211.036469,214.699493 212.043289,213.644867 
	C219.992584,205.318192 228.187317,197.225830 237.000000,188.364136 
	C237.000000,191.371902 237.000000,193.172089 237.000000,194.972260 
	C237.000000,298.407410 237.007019,401.842529 236.959457,505.277649 
	C236.958267,507.860199 236.176392,510.434967 236.067032,513.026367 
	C235.824112,518.783325 236.160934,524.062134 240.966873,528.658386 
	C252.622421,539.805237 263.764435,551.489136 274.527863,563.415466 
	C275.136566,564.909058 275.745270,566.402710 276.353973,567.896301 
	C277.902740,566.986389 279.451538,566.076477 281.742981,565.008057 
	C285.269714,563.532959 286.070587,560.838928 286.068665,557.154968 
	C285.988464,404.764374 285.999359,252.373734 286.006927,99.983086 
	C286.007019,97.988831 286.111084,95.994568 286.911316,93.999039 
	C291.992249,93.663490 293.736725,89.537025 296.533264,85.760979 
	C297.022186,85.173988 297.511078,84.586990 298.641602,83.917252 
M533.330200,355.999725 
	C536.220520,356.488129 536.025879,354.594452 536.018005,352.663086 
	C535.978455,343.005676 535.788635,333.341400 536.092957,323.693420 
	C536.235901,319.162598 534.742981,315.915222 531.515991,312.876678 
	C528.332581,309.879211 525.656128,306.343323 522.075012,302.267059 
	C535.105408,295.432007 537.580994,284.270416 536.119629,271.143341 
	C535.405334,264.727539 537.755981,257.412445 535.430664,251.888870 
	C533.038025,246.205368 526.775574,242.063522 521.918457,237.557510 
	C520.432007,236.178528 518.001160,235.124023 515.993164,235.107651 
	C494.681335,234.934052 473.367554,234.996658 452.054321,235.008362 
	C450.781250,235.009048 449.508240,235.130203 448.232483,235.195435 
	C448.232483,275.582672 448.232483,315.628052 448.232483,355.768463 
	C453.536560,355.768463 458.605255,355.768463 464.054932,355.768463 
	C464.054932,339.476837 464.054932,323.412231 464.054932,307.000366 
	C477.551239,307.000366 490.665771,306.982361 503.779907,307.040497 
	C504.663666,307.044434 505.771942,307.385010 506.389709,307.973999 
	C509.877594,311.299225 513.448120,314.574799 516.592773,318.211121 
	C519.019531,321.017303 520.338562,324.248993 520.136963,328.391113 
	C519.695007,337.471954 520.000000,346.589111 520.000000,356.000000 
	C524.432983,356.000000 528.396118,356.000000 533.330200,355.999725 
M869.058472,305.588959 
	C870.039001,307.854156 871.720886,310.075714 871.865112,312.393005 
	C872.257751,318.698914 872.024597,325.045410 871.991577,331.375610 
	C871.968689,335.765472 865.981384,341.969513 861.685791,341.985779 
	C850.524536,342.028137 839.362671,342.042908 828.202087,341.944031 
	C826.854858,341.932098 825.437256,341.312317 824.183960,340.703369 
	C818.175476,337.783783 815.687744,332.933289 817.134460,326.229126 
	C811.478516,326.229126 806.402344,326.229126 801.406433,326.229126 
	C799.900330,334.536987 800.792358,341.715698 808.269836,346.896149 
	C810.827087,348.667847 812.596497,351.549988 815.082886,353.460083 
	C816.739075,354.732391 819.017761,355.863190 821.033997,355.891052 
	C835.690918,356.093719 850.355957,355.806549 865.009338,356.112122 
	C869.702576,356.209991 872.675110,354.349487 876.256531,351.566040 
	C885.918152,344.057129 889.881409,334.963257 888.149109,322.782532 
	C887.244202,316.419189 889.646545,309.097137 887.326965,303.560608 
	C885.005432,298.019623 878.813232,293.995178 873.995850,289.664001 
	C872.378967,288.210266 869.786316,287.156677 867.616943,287.115509 
	C855.127380,286.878479 842.628235,286.856445 830.138611,287.092499 
	C826.651917,287.158417 824.441101,285.874176 821.943604,283.660248 
	C818.762756,280.840454 817.648560,277.811157 817.927490,273.695526 
	C818.242188,269.052399 817.975830,264.371338 818.006775,259.707062 
	C818.037964,255.017273 824.033386,249.021912 828.731201,249.007980 
	C837.893494,248.980820 847.070068,249.306229 856.212708,248.881699 
	C861.447205,248.638657 865.892639,249.623306 868.519836,254.162964 
	C870.278320,257.201477 870.911499,260.891205 872.173340,264.663635 
	C876.497375,264.663635 881.698242,264.663635 886.429077,264.663635 
	C889.139160,255.173157 885.677307,248.333023 878.435913,242.855637 
	C876.333191,241.265091 874.826904,238.880157 872.709473,237.316772 
	C871.143433,236.160400 869.039062,235.126877 867.159058,235.099518 
	C854.167969,234.910492 841.149597,235.464127 828.188110,234.816284 
	C821.045959,234.459305 816.473511,237.105347 811.351868,241.736084 
	C804.116577,248.277924 800.638855,255.221191 801.855652,265.023499 
	C802.650208,271.423981 800.286865,278.730133 802.586975,284.285309 
	C804.880798,289.825134 811.081604,293.847321 815.877319,298.195343 
	C817.497437,299.664215 820.043640,300.833160 822.192749,300.877869 
	C834.348450,301.130554 846.514832,301.148773 858.671387,300.916870 
	C862.760376,300.838867 866.167664,301.419586 869.058472,305.588959 
M735.000000,311.500000 
	C735.000000,285.425476 735.000000,259.350983 735.000000,233.253998 
	C729.415405,233.253998 724.346802,233.253998 718.893188,233.253998 
	C718.893188,249.191406 718.893188,264.879517 718.893188,280.889801 
	C705.969849,270.000000 705.969849,269.987366 691.861450,270.005676 
	C685.374695,270.014099 678.110657,268.270325 672.616516,270.626343 
	C666.936829,273.061890 662.850891,279.390472 658.343445,284.270660 
	C657.066650,285.653015 656.141907,287.913422 656.101990,289.793335 
	C655.886414,299.943512 656.935791,310.209167 655.773987,320.229187 
	C654.154114,334.200195 657.901062,345.152039 669.650574,353.022736 
	C671.664124,354.371552 674.111023,355.765472 676.413269,355.865875 
	C684.388672,356.213684 692.394714,355.820709 700.376282,356.088989 
	C703.528320,356.194946 705.595886,355.134613 707.644531,352.928619 
	C711.274780,349.019531 715.172302,345.358612 718.958008,341.593842 
	C719.335205,341.808594 719.712402,342.023315 720.089600,342.238068 
	C720.089600,346.771820 720.089600,351.305573 720.089600,355.697449 
	C725.350403,355.697449 730.085571,355.697449 735.000000,355.697449 
	C735.000000,341.097137 735.000000,326.798553 735.000000,311.500000 
M1441.500000,318.000000 
	C1451.927979,318.000000 1462.355957,318.000000 1472.999756,318.000000 
	C1472.999756,307.794983 1473.084961,298.154083 1472.905273,288.518066 
	C1472.879150,287.122406 1471.863159,285.478180 1470.827271,284.414185 
	C1466.083984,279.541962 1461.923950,273.098206 1456.099976,270.573151 
	C1450.623657,268.198792 1443.326904,270.021454 1436.831177,270.000977 
	C1434.832153,269.994690 1432.832886,269.988129 1430.833984,270.002228 
	C1424.347168,270.047974 1417.120972,268.335480 1411.581299,270.652039 
	C1406.040771,272.968994 1402.018921,279.167511 1397.686157,283.983734 
	C1396.230469,285.601959 1395.146362,288.189880 1395.115356,290.352142 
	C1394.897583,305.508514 1394.992310,320.669434 1395.004028,335.828918 
	C1395.008301,341.170898 1409.709961,355.983612 1415.020996,355.994904 
	C1423.850098,356.013702 1432.751709,355.289642 1441.489990,356.180359 
	C1452.340820,357.286377 1460.205200,353.922333 1467.372803,345.603302 
	C1471.797241,340.468445 1474.126587,335.900970 1472.542114,329.000000 
	C1470.051514,329.000000 1467.428955,329.000000 1464.806396,329.000000 
	C1462.223999,329.000000 1459.641602,329.000000 1457.099487,329.000000 
	C1456.890381,336.832153 1451.595947,341.999420 1444.419556,341.999908 
	C1436.756470,342.000397 1429.093506,342.016876 1421.430420,341.991669 
	C1418.354248,341.981567 1411.227539,336.406982 1411.077759,333.487183 
	C1410.816772,328.404266 1411.005127,323.298279 1411.005127,318.000000 
	C1421.218262,318.000000 1430.859131,318.000000 1441.500000,318.000000 
M1172.198242,285.237732 
	C1171.798828,286.921631 1171.072388,288.601929 1171.053833,290.289978 
	C1170.944702,300.277313 1171.931274,310.375580 1170.776611,320.228790 
	C1169.139648,334.199249 1172.901123,345.152283 1184.650879,353.023132 
	C1186.664429,354.371918 1189.114136,355.774628 1191.413452,355.866058 
	C1199.890259,356.203247 1208.471069,355.253784 1216.858643,356.181976 
	C1228.281494,357.446045 1236.446655,353.663330 1243.996582,345.027832 
	C1248.520508,339.853516 1249.648193,335.242828 1248.686157,329.234741 
	C1243.300659,329.234741 1238.198120,329.234741 1233.107544,329.234741 
	C1232.907471,335.420990 1227.816895,341.925201 1223.103882,341.973755 
	C1214.281616,342.064697 1205.322754,342.887665 1196.699097,341.575989 
	C1193.099609,341.028412 1188.839233,336.337677 1187.368774,332.561371 
	C1185.751953,328.409393 1187.000244,323.141754 1187.000244,317.819427 
	C1207.926392,317.819427 1228.439087,317.819427 1249.000000,317.819427 
	C1249.000000,307.944489 1249.068237,298.621399 1248.929321,289.301392 
	C1248.907471,287.837189 1248.320068,286.053894 1247.363281,284.980530 
	C1233.989746,269.976196 1233.963013,270.000000 1214.144897,270.000000 
	C1211.980713,270.000000 1209.816528,269.994446 1207.652344,270.001038 
	C1200.994507,270.021362 1193.512451,268.149933 1187.903687,270.587280 
	C1181.948608,273.175140 1177.770874,279.852875 1172.198242,285.237732 
M616.085999,356.000031 
	C617.961365,355.270203 620.176819,354.947876 621.641418,353.725800 
	C624.696960,351.176147 627.076965,347.780273 630.238892,345.402924 
	C635.870056,341.169006 637.179626,335.839813 635.543701,329.185760 
	C630.492249,329.185760 625.395203,329.185760 620.617310,329.185760 
	C619.958679,331.544067 619.917603,334.090088 618.668640,335.697723 
	C615.383362,339.926270 611.590881,342.923767 605.300842,342.184723 
	C598.398071,341.373657 591.326294,342.021393 584.328369,341.990112 
	C581.255920,341.976379 574.210266,336.314514 574.071167,333.382690 
	C573.830261,328.305481 574.004333,323.208588 574.004333,317.743225 
	C595.058289,317.743225 615.462646,317.743225 635.999939,317.743225 
	C635.999939,307.862152 636.078064,298.374786 635.915710,288.891541 
	C635.891296,287.470093 635.059448,285.764465 634.055847,284.708588 
	C629.358276,279.766235 625.241089,273.272430 619.425110,270.684021 
	C613.990356,268.265259 606.680481,270.054932 600.195862,270.002747 
	C598.029907,269.985321 595.863708,269.994476 593.697632,270.001038 
	C587.367126,270.020294 580.257507,268.245270 574.918518,270.557159 
	C569.233215,273.018982 565.080322,279.217346 560.568298,284.072388 
	C559.186890,285.558807 558.162292,287.978607 558.112366,289.999115 
	C557.865479,299.990295 557.989624,309.990875 558.003723,319.988159 
	C558.012939,326.484985 556.286316,333.714508 558.585510,339.272095 
	C560.877686,344.813049 567.077087,348.837646 571.871033,353.188110 
	C573.491150,354.658264 576.036255,355.833740 578.184509,355.877594 
	C590.509338,356.129242 602.841980,356.000000 616.085999,356.000031 
M1588.000000,247.504715 
	C1588.000000,283.585052 1588.000000,319.665405 1588.000000,355.731445 
	C1593.610840,355.731445 1598.681885,355.731445 1604.000000,355.731445 
	C1604.000000,343.665039 1604.836304,331.789154 1603.767334,320.087372 
	C1602.673462,308.114716 1606.380005,299.598755 1615.355835,291.581818 
	C1621.392944,286.189545 1626.800903,283.093262 1634.880737,283.822968 
	C1638.722168,284.169830 1641.602905,284.860046 1644.425415,287.689850 
	C1647.122437,290.393890 1648.285522,293.051636 1648.067993,296.802124 
	C1647.788574,301.616364 1648.000000,306.459106 1648.000000,311.289551 
	C1648.000000,326.066772 1648.000000,340.844025 1648.000000,355.794250 
	C1653.480347,355.794250 1658.550049,355.794250 1664.000000,355.794250 
	C1664.000000,338.978027 1664.019409,322.364929 1663.990234,305.751892 
	C1663.978882,299.274200 1665.617065,292.057343 1663.292603,286.526825 
	C1660.963867,280.985962 1654.758423,276.987274 1649.974731,272.616455 
	C1648.468262,271.240021 1646.096802,270.218475 1644.066895,270.116333 
	C1637.753296,269.798737 1631.408936,270.146545 1625.086182,269.938599 
	C1621.891235,269.833527 1619.500366,270.609589 1617.312256,273.089874 
	C1613.336670,277.596466 1609.024170,281.806030 1604.852417,286.139618 
	C1604.496216,285.894592 1604.140015,285.649536 1603.783813,285.404510 
	C1603.783813,268.004974 1603.783813,250.605438 1603.783813,233.290070 
	C1598.347168,233.290070 1593.276489,233.290070 1588.000000,233.290070 
	C1588.000000,237.887238 1588.000000,242.197571 1588.000000,247.504715 
M985.000000,303.500000 
	C985.000000,292.410248 985.000000,281.320526 985.000000,270.274628 
	C979.374329,270.274628 974.305237,270.274628 969.000000,270.274628 
	C969.000000,279.845490 969.010193,289.143860 968.996826,298.442230 
	C968.985779,306.099426 971.033508,314.616272 968.332703,321.171570 
	C965.640381,327.706329 958.188110,332.288391 952.796570,337.700439 
	C946.586792,343.933746 934.585571,343.833893 928.239258,337.865234 
	C925.704346,335.481171 924.730469,333.058746 924.929138,329.646698 
	C925.209290,324.834808 925.000000,319.994446 925.000000,315.166260 
	C925.000000,300.231873 925.000000,285.297455 925.000000,270.211304 
	C919.504639,270.211304 914.436646,270.211304 909.000000,270.211304 
	C909.000000,286.860321 908.981201,303.300568 909.009155,319.740692 
	C909.020447,326.383636 907.328552,333.783600 909.708008,339.456421 
	C912.090637,345.136719 918.467957,349.220184 923.354553,353.721100 
	C924.732727,354.990479 927.002991,355.825073 928.901611,355.899261 
	C935.550964,356.159149 942.228394,356.221771 948.869629,355.873138 
	C951.034363,355.759491 953.602600,354.653168 955.153687,353.144714 
	C959.931030,348.498627 964.306030,343.438782 968.837280,338.539703 
	C969.307312,338.896240 969.777283,339.252808 970.247253,339.609375 
	C970.247253,345.016907 970.247253,350.424469 970.247253,355.696045 
	C975.350220,355.696045 980.086365,355.696045 985.000000,355.696045 
	C985.000000,338.428528 985.000000,321.464264 985.000000,303.500000 
M1553.000000,293.928040 
	C1553.000000,295.526764 1553.000000,297.125519 1553.000000,298.752075 
	C1558.565063,298.752075 1563.641846,298.752075 1569.358887,298.752075 
	C1567.818726,293.309265 1571.345703,287.487244 1565.627197,282.916687 
	C1560.855469,279.102936 1557.492310,272.654419 1552.235596,270.560486 
	C1546.766968,268.382111 1539.775635,270.025787 1533.450073,270.000885 
	C1531.951660,269.994995 1530.453125,269.994446 1528.954712,270.000946 
	C1522.462891,270.029053 1515.198608,268.247589 1509.693115,270.593048 
	C1504.010742,273.013916 1500.038940,279.449799 1495.320557,284.131165 
	C1495.203125,284.247772 1495.072876,284.372131 1495.009155,284.519073 
	C1494.332275,286.078094 1493.101807,287.637299 1493.087524,289.206116 
	C1492.943848,305.021973 1492.945923,320.840088 1493.083740,336.656036 
	C1493.097656,338.234680 1493.897949,340.159790 1494.982300,341.314667 
	C1499.645630,346.280701 1503.781006,352.753967 1509.593262,355.335541 
	C1515.027588,357.749176 1522.334229,355.955017 1528.816895,355.996490 
	C1531.980225,356.016724 1535.208496,355.588745 1538.295288,356.075165 
	C1548.586792,357.696747 1555.780884,353.594879 1562.891235,346.157837 
	C1568.568481,340.219818 1569.997437,334.554077 1568.566895,327.251007 
	C1563.361572,327.251007 1558.275635,327.251007 1553.000244,327.251007 
	C1553.000244,328.313629 1553.006348,329.126526 1552.999268,329.939301 
	C1552.940308,336.724792 1547.531616,341.998962 1540.632080,341.999817 
	C1533.639282,342.000702 1526.646240,342.022766 1519.653564,341.991760 
	C1515.240356,341.972198 1509.029663,336.023132 1509.015015,331.724030 
	C1508.972412,319.236938 1508.962769,306.749359 1509.053467,294.262787 
	C1509.063232,292.911377 1509.449829,291.259003 1510.283203,290.270264 
	C1513.736084,286.174133 1517.399902,282.939758 1523.686523,283.834656 
	C1529.234985,284.624481 1534.984741,283.999451 1540.645630,284.000153 
	C1546.061768,284.000824 1550.814697,287.492798 1553.000000,293.928040 
M1360.000000,307.500000 
	C1360.000000,288.073181 1360.000000,268.646332 1360.000000,248.827667 
	C1372.306763,248.827667 1384.050049,248.827667 1395.711548,248.827667 
	C1395.711548,244.018768 1395.711548,239.612595 1395.711548,235.284790 
	C1366.020508,235.284790 1336.618896,235.284790 1307.288330,235.284790 
	C1307.288330,239.981094 1307.288330,244.387283 1307.288330,249.181122 
	C1319.647705,249.181122 1331.723267,249.181122 1344.178223,249.181122 
	C1344.178223,284.979767 1344.178223,320.381348 1344.178223,355.711609 
	C1349.646729,355.711609 1354.718750,355.711609 1360.000000,355.711609 
	C1360.000000,339.782806 1360.000000,324.141388 1360.000000,307.500000 
M1009.000000,301.500000 
	C1009.000000,319.593811 1009.000000,337.687592 1009.000000,355.713318 
	C1014.643555,355.713318 1019.715332,355.713318 1025.000000,355.713318 
	C1025.000000,338.620728 1024.972290,321.813782 1025.046387,305.007294 
	C1025.053223,303.471588 1025.226562,301.511536 1026.142944,300.470947 
	C1035.047241,290.360168 1043.908936,279.963928 1059.778076,283.979340 
	C1060.358643,284.126282 1061.009033,283.998077 1061.789307,283.998077 
	C1061.789307,279.177948 1061.789307,274.773621 1061.789307,270.000000 
	C1055.461548,270.000000 1049.323242,269.768280 1043.219360,270.123901 
	C1041.040161,270.250854 1038.546265,271.343872 1036.887695,272.789551 
	C1032.733154,276.411133 1028.974121,280.486450 1023.961548,285.467743 
	C1023.961548,279.262451 1023.961548,274.731323 1023.961548,270.287415 
	C1018.687927,270.287415 1013.949341,270.287415 1009.000000,270.287415 
	C1009.000000,280.548889 1009.000000,290.524445 1009.000000,301.500000 
z"/>
<path fill="#FFFFFF" opacity="1.000000" stroke="none" 
	d="
M275.113403,562.956604 
	C263.764435,551.489136 252.622421,539.805237 240.966873,528.658386 
	C236.160934,524.062134 235.824112,518.783325 236.067032,513.026367 
	C236.176392,510.434967 236.958267,507.860199 236.959457,505.277649 
	C237.007019,401.842529 237.000000,298.407410 237.000000,194.972260 
	C237.000000,193.172089 237.000000,191.371902 237.000000,188.364136 
	C228.187317,197.225830 219.992584,205.318192 212.043289,213.644867 
	C211.036469,214.699493 211.041763,216.982147 211.039993,218.696350 
	C210.990280,266.999359 210.836182,315.303558 211.182449,363.604126 
	C211.232498,370.584076 206.602295,373.014893 201.048141,373.009430 
	C178.062576,372.986938 155.076981,373.000000 132.091385,373.000000 
	C120.598595,373.000031 109.105469,372.960480 97.613495,373.057220 
	C96.375763,373.067596 94.756805,373.511688 93.972717,374.361633 
	C88.368134,380.436798 81.707245,382.463928 74.800995,379.930573 
	C68.747742,377.710144 64.994720,371.385437 65.000542,363.413513 
	C65.000900,362.913879 65.005890,362.414246 65.391495,361.328827 
	C66.554405,358.842773 67.334549,356.942535 68.114700,355.042267 
	C76.573013,347.789978 82.853539,347.380890 91.131073,353.017792 
	C91.666412,353.382355 92.465111,353.725830 92.615555,354.234558 
	C94.551483,360.780609 99.717323,360.060669 104.855537,360.045380 
	C135.661102,359.953857 166.467072,360.000000 197.687912,360.000000 
	C197.793594,358.718048 197.986465,357.466278 197.986969,356.214417 
	C198.002853,316.914612 198.045761,277.614746 197.955139,238.315140 
	C197.939957,231.734207 197.248291,225.157501 197.026443,218.573547 
	C196.843246,213.136551 198.605072,208.624176 202.707840,204.656433 
	C214.316788,193.429550 225.600250,181.866409 237.029373,170.453201 
	C241.066498,166.421707 243.478012,166.299271 248.606796,170.295395 
	C249.383347,172.549438 249.774994,174.274841 250.166656,176.000244 
	C250.111099,177.662476 250.007050,179.324722 250.006927,180.986954 
	C249.999283,292.312225 250.012207,403.637482 249.938660,514.962708 
	C249.936539,518.168396 250.751175,520.472412 253.115936,522.730469 
	C259.958649,529.264526 266.537384,536.075012 274.000000,543.559570 
	C274.000000,541.108276 274.000000,539.561340 274.000000,538.014465 
	C274.000000,394.691498 274.007599,251.368546 273.958130,108.045609 
	C273.956848,104.293571 273.322205,100.542702 273.002350,96.789635 
	C272.390869,89.614098 275.051910,83.966293 280.337067,79.048897 
	C290.658295,69.445808 300.654053,59.493282 310.821289,49.723606 
	C311.736511,48.844151 312.834076,48.047203 313.991669,47.546520 
	C318.137360,45.753437 322.428223,48.241150 322.970825,52.714680 
	C323.130188,54.028778 322.999786,55.378189 322.999786,56.711418 
	C323.000031,183.868866 323.000000,311.026337 323.000000,438.183777 
	C323.000000,439.956085 323.000000,441.728424 323.000000,444.979584 
	C331.532928,436.297272 339.257050,428.616486 346.699524,420.671875 
	C347.810883,419.485535 347.947937,417.060364 347.949615,415.207764 
	C348.009766,349.212616 347.997314,283.217377 348.004517,217.222168 
	C348.005157,211.143829 350.383667,208.528946 355.656036,209.076324 
	C356.951324,209.210815 358.402222,210.031769 359.352417,210.971207 
	C370.608215,222.099854 382.016296,233.092560 392.814331,244.653442 
	C395.523071,247.553558 396.204010,252.347656 397.911560,257.022797 
	C397.726410,259.516266 397.446533,261.258270 397.166687,263.000275 
	C397.166656,295.139221 397.166656,327.278168 397.166656,359.708496 
	C642.269775,359.708496 887.328979,359.708496 1132.694092,359.708496 
	C1132.694092,354.420990 1132.694092,349.014557 1132.694092,343.212769 
	C1128.760376,346.677795 1125.026733,350.223877 1120.996216,353.391968 
	C1119.353027,354.683472 1117.086670,355.819305 1115.067139,355.884369 
	C1106.576660,356.157928 1098.072021,356.025238 1089.572754,355.989960 
	C1084.946289,355.970734 1070.016968,341.002502 1070.009399,336.368317 
	C1069.984253,320.869507 1069.907349,305.369324 1070.114136,289.873230 
	C1070.140747,287.875336 1071.279175,285.495758 1072.660156,283.985748 
	C1077.035645,279.201324 1081.031128,272.978638 1086.574219,270.659302 
	C1092.115234,268.340881 1099.425903,270.688690 1105.812378,269.853973 
	C1115.843872,268.542816 1123.512085,271.577332 1129.330688,279.765167 
	C1130.304321,281.135101 1131.769043,282.156006 1133.828857,284.123260 
	C1133.828857,278.734467 1133.828857,274.663757 1133.828857,270.299561 
	C1138.916504,270.299561 1143.658203,270.299561 1148.802734,270.299561 
	C1148.802734,299.929688 1148.802734,329.669495 1148.802734,359.745270 
	C1150.611084,359.843781 1152.045166,359.990204 1153.479126,359.990295 
	C1327.799927,360.000549 1502.120605,359.997772 1676.441406,360.023834 
	C1678.758667,360.024170 1680.576416,359.899231 1682.092651,357.551666 
	C1687.930420,348.513550 1699.478271,347.860931 1707.617920,356.270264 
	C1708.957275,358.516174 1709.920166,360.278198 1710.883057,362.040253 
	C1711.450073,369.088654 1710.341675,375.185577 1703.425781,379.227905 
	C1696.242310,383.426636 1688.072998,382.765625 1682.989136,376.266388 
	C1680.875122,373.563782 1678.619873,372.945038 1675.562378,372.968445 
	C1664.896729,373.050018 1654.229980,373.000000 1643.563721,373.000000 
	C1480.736328,373.000000 1317.908813,373.000000 1155.081421,373.000000 
	C1153.258911,373.000000 1151.436279,373.000000 1150.796021,373.000000 
	C1148.473633,376.372833 1146.640625,379.009766 1144.833374,381.664276 
	C1137.567261,392.337250 1127.549316,395.750458 1114.903564,394.168304 
	C1107.519409,393.244415 1099.914429,394.224701 1092.431885,393.865997 
	C1090.122681,393.755310 1087.619873,392.419159 1085.688843,390.990906 
	C1083.171265,389.128815 1081.199463,386.546082 1078.875122,384.401093 
	C1075.654785,381.429474 1072.548584,378.472412 1074.368408,373.000000 
	C1071.841309,373.000000 1069.880615,373.000000 1067.919922,373.000000 
	C843.928040,373.000000 619.936157,373.000031 395.944275,372.999939 
	C385.814575,372.999908 384.000000,371.171387 384.000000,360.966980 
	C384.000000,326.468231 384.054535,291.969177 383.876129,257.471344 
	C383.864349,255.193909 382.602081,252.435318 381.021393,250.739548 
	C374.796509,244.061478 368.211670,237.718887 361.000000,230.489441 
	C361.000000,233.029022 361.000000,234.748413 361.000000,236.467804 
	C361.000000,296.798950 360.883179,357.130646 361.161682,417.460510 
	C361.193207,424.282745 358.573364,429.024780 354.127258,433.352722 
	C344.260559,442.957245 334.350555,452.517700 324.401855,462.037201 
	C322.888458,463.485291 321.205139,464.863190 319.371704,465.847565 
	C315.303619,468.031738 310.282654,465.034424 310.010498,460.410492 
	C309.942078,459.247894 310.000031,458.077881 310.000000,456.911255 
	C309.996063,329.916260 309.992126,202.921249 309.987671,75.132843 
	C309.935883,73.892944 309.884613,73.446449 309.910583,72.625900 
	C310.112244,69.297707 309.003204,69.470161 307.299347,71.197800 
	C303.925018,74.619286 300.556793,78.046783 296.957214,81.659622 
	C295.803314,82.861725 294.878296,83.876015 293.638550,85.015427 
	C290.938141,88.093803 288.552399,91.047058 286.166656,94.000320 
	C286.111084,95.994568 286.007019,97.988831 286.006927,99.983086 
	C285.999359,252.373734 285.988464,404.764374 286.068665,557.154968 
	C286.070587,560.838928 285.269714,563.532959 281.003540,565.010254 
	C278.547211,564.327148 276.830322,563.641907 275.113403,562.956604 
M1090.022705,287.464966 
	C1086.425659,289.830200 1085.812500,293.231232 1085.916870,297.324799 
	C1086.171753,307.312836 1086.359985,317.329895 1085.858643,327.299255 
	C1085.579590,332.846863 1087.360596,336.695709 1091.503174,340.065186 
	C1094.741821,342.699493 1115.445190,342.960541 1118.427002,340.024323 
	C1123.285522,335.240021 1129.827881,331.162994 1132.395752,325.346527 
	C1134.800781,319.899231 1132.969238,312.581024 1132.999023,306.086182 
	C1133.005859,304.587036 1133.083008,303.081451 1132.969238,301.590973 
	C1132.898926,300.669006 1132.825562,299.461945 1132.249146,298.907043 
	C1124.374268,291.327362 1117.836426,281.250854 1104.372559,283.936951 
	C1102.129761,284.384399 1099.637695,283.618378 1097.411621,284.104095 
	C1095.045288,284.620392 1092.858521,285.958862 1090.022705,287.464966 
M1094.197266,378.760315 
	C1095.708496,379.173553 1097.213257,379.913635 1098.732056,379.943542 
	C1105.384155,380.074646 1112.088989,379.500610 1118.680542,380.145721 
	C1124.814331,380.745972 1128.513306,378.067719 1131.713989,373.323303 
	C1117.730835,373.323303 1103.947632,373.323303 1090.164307,373.323303 
	C1089.615356,373.973389 1089.066284,374.623474 1088.517212,375.273560 
	C1090.238403,376.224854 1091.959595,377.176178 1094.197266,378.760315 
z"/>
<path fill="#FFFFFF" opacity="1.000000" stroke="none" 
	d="
M532.844727,355.999878 
	C528.396118,356.000000 524.432983,356.000000 520.000000,356.000000 
	C520.000000,346.589111 519.695007,337.471954 520.136963,328.391113 
	C520.338562,324.248993 519.019531,321.017303 516.592773,318.211121 
	C513.448120,314.574799 509.877594,311.299225 506.389709,307.973999 
	C505.771942,307.385010 504.663666,307.044434 503.779907,307.040497 
	C490.665771,306.982361 477.551239,307.000366 464.054932,307.000366 
	C464.054932,323.412231 464.054932,339.476837 464.054932,355.768463 
	C458.605255,355.768463 453.536560,355.768463 448.232483,355.768463 
	C448.232483,315.628052 448.232483,275.582672 448.232483,235.195435 
	C449.508240,235.130203 450.781250,235.009048 452.054321,235.008362 
	C473.367554,234.996658 494.681335,234.934052 515.993164,235.107651 
	C518.001160,235.124023 520.432007,236.178528 521.918457,237.557510 
	C526.775574,242.063522 533.038025,246.205368 535.430664,251.888870 
	C537.755981,257.412445 535.405334,264.727539 536.119629,271.143341 
	C537.580994,284.270416 535.105408,295.432007 522.075012,302.267059 
	C525.656128,306.343323 528.332581,309.879211 531.515991,312.876678 
	C534.742981,315.915222 536.235901,319.162598 536.092957,323.693420 
	C535.788635,333.341400 535.978455,343.005676 536.018005,352.663086 
	C536.025879,354.594452 536.220520,356.488129 532.844727,355.999878 
M518.788025,286.776001 
	C519.192017,285.260284 519.920471,283.749817 519.945068,282.227936 
	C520.065918,274.738525 520.020142,267.246002 519.992737,259.754730 
	C519.975525,255.053894 514.001160,249.018570 509.327972,249.009033 
	C496.509460,248.982895 483.690857,249.000015 470.872284,249.000000 
	C468.617798,249.000000 466.363342,249.000000 464.317993,249.000000 
	C464.317993,264.059357 464.317993,278.454620 464.317993,293.000000 
	C477.939850,293.000000 491.254089,292.700500 504.543976,293.138763 
	C510.338318,293.329803 514.826233,292.043915 518.788025,286.776001 
z"/>
<path fill="#FFFFFF" opacity="1.000000" stroke="none" 
	d="
M868.795288,305.304779 
	C866.167664,301.419586 862.760376,300.838867 858.671387,300.916870 
	C846.514832,301.148773 834.348450,301.130554 822.192749,300.877869 
	C820.043640,300.833160 817.497437,299.664215 815.877319,298.195343 
	C811.081604,293.847321 804.880798,289.825134 802.586975,284.285309 
	C800.286865,278.730133 802.650208,271.423981 801.855652,265.023499 
	C800.638855,255.221191 804.116577,248.277924 811.351868,241.736084 
	C816.473511,237.105347 821.045959,234.459305 828.188110,234.816284 
	C841.149597,235.464127 854.167969,234.910492 867.159058,235.099518 
	C869.039062,235.126877 871.143433,236.160400 872.709473,237.316772 
	C874.826904,238.880157 876.333191,241.265091 878.435913,242.855637 
	C885.677307,248.333023 889.139160,255.173157 886.429077,264.663635 
	C881.698242,264.663635 876.497375,264.663635 872.173340,264.663635 
	C870.911499,260.891205 870.278320,257.201477 868.519836,254.162964 
	C865.892639,249.623306 861.447205,248.638657 856.212708,248.881699 
	C847.070068,249.306229 837.893494,248.980820 828.731201,249.007980 
	C824.033386,249.021912 818.037964,255.017273 818.006775,259.707062 
	C817.975830,264.371338 818.242188,269.052399 817.927490,273.695526 
	C817.648560,277.811157 818.762756,280.840454 821.943604,283.660248 
	C824.441101,285.874176 826.651917,287.158417 830.138611,287.092499 
	C842.628235,286.856445 855.127380,286.878479 867.616943,287.115509 
	C869.786316,287.156677 872.378967,288.210266 873.995850,289.664001 
	C878.813232,293.995178 885.005432,298.019623 887.326965,303.560608 
	C889.646545,309.097137 887.244202,316.419189 888.149109,322.782532 
	C889.881409,334.963257 885.918152,344.057129 876.256531,351.566040 
	C872.675110,354.349487 869.702576,356.209991 865.009338,356.112122 
	C850.355957,355.806549 835.690918,356.093719 821.033997,355.891052 
	C819.017761,355.863190 816.739075,354.732391 815.082886,353.460083 
	C812.596497,351.549988 810.827087,348.667847 808.269836,346.896149 
	C800.792358,341.715698 799.900330,334.536987 801.406433,326.229126 
	C806.402344,326.229126 811.478516,326.229126 817.134460,326.229126 
	C815.687744,332.933289 818.175476,337.783783 824.183960,340.703369 
	C825.437256,341.312317 826.854858,341.932098 828.202087,341.944031 
	C839.362671,342.042908 850.524536,342.028137 861.685791,341.985779 
	C865.981384,341.969513 871.968689,335.765472 871.991577,331.375610 
	C872.024597,325.045410 872.257751,318.698914 871.865112,312.393005 
	C871.720886,310.075714 870.039001,307.854156 868.795288,305.304779 
z"/>
<path fill="#FFFFFF" opacity="1.000000" stroke="none" 
	d="
M735.000000,312.000000 
	C735.000000,326.798553 735.000000,341.097137 735.000000,355.697449 
	C730.085571,355.697449 725.350403,355.697449 720.089600,355.697449 
	C720.089600,351.305573 720.089600,346.771820 720.089600,342.238068 
	C719.712402,342.023315 719.335205,341.808594 718.958008,341.593842 
	C715.172302,345.358612 711.274780,349.019531 707.644531,352.928619 
	C705.595886,355.134613 703.528320,356.194946 700.376282,356.088989 
	C692.394714,355.820709 684.388672,356.213684 676.413269,355.865875 
	C674.111023,355.765472 671.664124,354.371552 669.650574,353.022736 
	C657.901062,345.152039 654.154114,334.200195 655.773987,320.229187 
	C656.935791,310.209167 655.886414,299.943512 656.101990,289.793335 
	C656.141907,287.913422 657.066650,285.653015 658.343445,284.270660 
	C662.850891,279.390472 666.936829,273.061890 672.616516,270.626343 
	C678.110657,268.270325 685.374695,270.014099 691.861450,270.005676 
	C705.969849,269.987366 705.969849,270.000000 718.893188,280.889801 
	C718.893188,264.879517 718.893188,249.191406 718.893188,233.253998 
	C724.346802,233.253998 729.415405,233.253998 735.000000,233.253998 
	C735.000000,259.350983 735.000000,285.425476 735.000000,312.000000 
M719.000000,314.467255 
	C719.000000,309.807098 719.052612,305.145966 718.964783,300.487488 
	C718.941406,299.249176 718.910706,297.576904 718.160583,296.858215 
	C713.904785,292.780701 709.523987,288.816650 704.960815,285.089264 
	C703.861389,284.191223 701.915894,284.077118 700.350708,284.046082 
	C694.527893,283.930634 688.701233,283.981812 682.876160,284.005524 
	C677.892761,284.025818 672.012024,289.995148 672.004883,295.045624 
	C671.989136,306.196625 671.999939,317.347656 672.000000,328.498688 
	C672.000000,337.097900 676.870178,341.999939 685.413452,342.000000 
	C686.578491,342.000000 687.770813,341.836609 688.904297,342.025665 
	C698.575439,343.638794 705.608337,340.019867 712.209167,332.748871 
	C717.013367,327.457001 720.212036,322.607941 719.000000,314.467255 
z"/>
<path fill="#FFFFFF" opacity="1.000000" stroke="none" 
	d="
M1441.000000,318.000000 
	C1430.859131,318.000000 1421.218262,318.000000 1411.005127,318.000000 
	C1411.005127,323.298279 1410.816772,328.404266 1411.077759,333.487183 
	C1411.227539,336.406982 1418.354248,341.981567 1421.430420,341.991669 
	C1429.093506,342.016876 1436.756470,342.000397 1444.419556,341.999908 
	C1451.595947,341.999420 1456.890381,336.832153 1457.099487,329.000000 
	C1459.641602,329.000000 1462.223999,329.000000 1464.806396,329.000000 
	C1467.428955,329.000000 1470.051514,329.000000 1472.542114,329.000000 
	C1474.126587,335.900970 1471.797241,340.468445 1467.372803,345.603302 
	C1460.205200,353.922333 1452.340820,357.286377 1441.489990,356.180359 
	C1432.751709,355.289642 1423.850098,356.013702 1415.020996,355.994904 
	C1409.709961,355.983612 1395.008301,341.170898 1395.004028,335.828918 
	C1394.992310,320.669434 1394.897583,305.508514 1395.115356,290.352142 
	C1395.146362,288.189880 1396.230469,285.601959 1397.686157,283.983734 
	C1402.018921,279.167511 1406.040771,272.968994 1411.581299,270.652039 
	C1417.120972,268.335480 1424.347168,270.047974 1430.833984,270.002228 
	C1432.832886,269.988129 1434.832153,269.994690 1436.831177,270.000977 
	C1443.326904,270.021454 1450.623657,268.198792 1456.099976,270.573151 
	C1461.923950,273.098206 1466.083984,279.541962 1470.827271,284.414185 
	C1471.863159,285.478180 1472.879150,287.122406 1472.905273,288.518066 
	C1473.084961,298.154083 1472.999756,307.794983 1472.999756,318.000000 
	C1462.355957,318.000000 1451.927979,318.000000 1441.000000,318.000000 
M1413.683838,304.999756 
	C1428.067383,304.999756 1442.450928,304.999756 1457.000000,304.999756 
	C1457.000000,301.083832 1457.030640,297.776031 1456.992432,294.469025 
	C1456.942261,290.135040 1450.892578,284.031097 1446.572876,284.011383 
	C1438.098999,283.972687 1429.624634,283.976715 1421.150879,284.028931 
	C1420.068970,284.035614 1418.813354,284.153809 1417.937012,284.699829 
	C1412.112671,288.328583 1408.937378,298.096436 1411.415405,304.562622 
	C1411.519409,304.833893 1412.270020,304.857300 1413.683838,304.999756 
z"/>
<path fill="#FFFFFF" opacity="1.000000" stroke="none" 
	d="
M1172.507568,284.991150 
	C1177.770874,279.852875 1181.948608,273.175140 1187.903687,270.587280 
	C1193.512451,268.149933 1200.994507,270.021362 1207.652344,270.001038 
	C1209.816528,269.994446 1211.980713,270.000000 1214.144897,270.000000 
	C1233.963013,270.000000 1233.989746,269.976196 1247.363281,284.980530 
	C1248.320068,286.053894 1248.907471,287.837189 1248.929321,289.301392 
	C1249.068237,298.621399 1249.000000,307.944489 1249.000000,317.819427 
	C1228.439087,317.819427 1207.926392,317.819427 1187.000244,317.819427 
	C1187.000244,323.141754 1185.751953,328.409393 1187.368774,332.561371 
	C1188.839233,336.337677 1193.099609,341.028412 1196.699097,341.575989 
	C1205.322754,342.887665 1214.281616,342.064697 1223.103882,341.973755 
	C1227.816895,341.925201 1232.907471,335.420990 1233.107544,329.234741 
	C1238.198120,329.234741 1243.300659,329.234741 1248.686157,329.234741 
	C1249.648193,335.242828 1248.520508,339.853516 1243.996582,345.027832 
	C1236.446655,353.663330 1228.281494,357.446045 1216.858643,356.181976 
	C1208.471069,355.253784 1199.890259,356.203247 1191.413452,355.866058 
	C1189.114136,355.774628 1186.664429,354.371918 1184.650879,353.023132 
	C1172.901123,345.152283 1169.139648,334.199249 1170.776611,320.228790 
	C1171.931274,310.375580 1170.944702,300.277313 1171.053833,290.289978 
	C1171.072388,288.601929 1171.798828,286.921631 1172.507568,284.991150 
M1187.000000,294.008057 
	C1187.000000,297.603973 1187.000000,301.199921 1187.000000,304.751190 
	C1202.614990,304.751190 1217.664185,304.751190 1233.069946,304.751190 
	C1232.450073,298.221924 1235.361694,291.070770 1228.111450,286.676819 
	C1226.156738,285.492188 1223.884888,284.212128 1221.710449,284.120697 
	C1214.240845,283.806549 1206.749756,283.999390 1199.266846,284.000183 
	C1193.894897,284.000793 1189.040771,287.617950 1187.000000,294.008057 
z"/>
<path fill="#FFFFFF" opacity="1.000000" stroke="none" 
	d="
M615.628967,356.000000 
	C602.841980,356.000000 590.509338,356.129242 578.184509,355.877594 
	C576.036255,355.833740 573.491150,354.658264 571.871033,353.188110 
	C567.077087,348.837646 560.877686,344.813049 558.585510,339.272095 
	C556.286316,333.714508 558.012939,326.484985 558.003723,319.988159 
	C557.989624,309.990875 557.865479,299.990295 558.112366,289.999115 
	C558.162292,287.978607 559.186890,285.558807 560.568298,284.072388 
	C565.080322,279.217346 569.233215,273.018982 574.918518,270.557159 
	C580.257507,268.245270 587.367126,270.020294 593.697632,270.001038 
	C595.863708,269.994476 598.029907,269.985321 600.195862,270.002747 
	C606.680481,270.054932 613.990356,268.265259 619.425110,270.684021 
	C625.241089,273.272430 629.358276,279.766235 634.055847,284.708588 
	C635.059448,285.764465 635.891296,287.470093 635.915710,288.891541 
	C636.078064,298.374786 635.999939,307.862152 635.999939,317.743225 
	C615.462646,317.743225 595.058289,317.743225 574.004333,317.743225 
	C574.004333,323.208588 573.830261,328.305481 574.071167,333.382690 
	C574.210266,336.314514 581.255920,341.976379 584.328369,341.990112 
	C591.326294,342.021393 598.398071,341.373657 605.300842,342.184723 
	C611.590881,342.923767 615.383362,339.926270 618.668640,335.697723 
	C619.917603,334.090088 619.958679,331.544067 620.617310,329.185760 
	C625.395203,329.185760 630.492249,329.185760 635.543701,329.185760 
	C637.179626,335.839813 635.870056,341.169006 630.238892,345.402924 
	C627.076965,347.780273 624.696960,351.176147 621.641418,353.725800 
	C620.176819,354.947876 617.961365,355.270203 615.628967,356.000000 
M579.111084,286.341003 
	C571.680359,290.907684 574.481445,298.125732 573.942627,305.000000 
	C581.983154,305.000000 589.591919,305.000000 597.200623,305.000000 
	C604.775818,305.000000 612.350952,305.000000 620.000000,305.000000 
	C620.000000,300.989838 620.037231,297.666138 619.990723,294.343567 
	C619.930542,290.041687 613.797119,284.026794 609.424255,284.009521 
	C601.104919,283.976654 592.783325,283.905090 584.467590,284.082977 
	C582.874023,284.117096 581.303406,285.224792 579.111084,286.341003 
z"/>
<path fill="#FFFFFF" opacity="1.000000" stroke="none" 
	d="
M1588.000000,247.006317 
	C1588.000000,242.197571 1588.000000,237.887238 1588.000000,233.290070 
	C1593.276489,233.290070 1598.347168,233.290070 1603.783813,233.290070 
	C1603.783813,250.605438 1603.783813,268.004974 1603.783813,285.404510 
	C1604.140015,285.649536 1604.496216,285.894592 1604.852417,286.139618 
	C1609.024170,281.806030 1613.336670,277.596466 1617.312256,273.089874 
	C1619.500366,270.609589 1621.891235,269.833527 1625.086182,269.938599 
	C1631.408936,270.146545 1637.753296,269.798737 1644.066895,270.116333 
	C1646.096802,270.218475 1648.468262,271.240021 1649.974731,272.616455 
	C1654.758423,276.987274 1660.963867,280.985962 1663.292603,286.526825 
	C1665.617065,292.057343 1663.978882,299.274200 1663.990234,305.751892 
	C1664.019409,322.364929 1664.000000,338.978027 1664.000000,355.794250 
	C1658.550049,355.794250 1653.480347,355.794250 1648.000000,355.794250 
	C1648.000000,340.844025 1648.000000,326.066772 1648.000000,311.289551 
	C1648.000000,306.459106 1647.788574,301.616364 1648.067993,296.802124 
	C1648.285522,293.051636 1647.122437,290.393890 1644.425415,287.689850 
	C1641.602905,284.860046 1638.722168,284.169830 1634.880737,283.822968 
	C1626.800903,283.093262 1621.392944,286.189545 1615.355835,291.581818 
	C1606.380005,299.598755 1602.673462,308.114716 1603.767334,320.087372 
	C1604.836304,331.789154 1604.000000,343.665039 1604.000000,355.731445 
	C1598.681885,355.731445 1593.610840,355.731445 1588.000000,355.731445 
	C1588.000000,319.665405 1588.000000,283.585052 1588.000000,247.006317 
z"/>
<path fill="#FFFFFF" opacity="1.000000" stroke="none" 
	d="
M985.000000,304.000000 
	C985.000000,321.464264 985.000000,338.428528 985.000000,355.696045 
	C980.086365,355.696045 975.350220,355.696045 970.247253,355.696045 
	C970.247253,350.424469 970.247253,345.016907 970.247253,339.609375 
	C969.777283,339.252808 969.307312,338.896240 968.837280,338.539703 
	C964.306030,343.438782 959.931030,348.498627 955.153687,353.144714 
	C953.602600,354.653168 951.034363,355.759491 948.869629,355.873138 
	C942.228394,356.221771 935.550964,356.159149 928.901611,355.899261 
	C927.002991,355.825073 924.732727,354.990479 923.354553,353.721100 
	C918.467957,349.220184 912.090637,345.136719 909.708008,339.456421 
	C907.328552,333.783600 909.020447,326.383636 909.009155,319.740692 
	C908.981201,303.300568 909.000000,286.860321 909.000000,270.211304 
	C914.436646,270.211304 919.504639,270.211304 925.000000,270.211304 
	C925.000000,285.297455 925.000000,300.231873 925.000000,315.166260 
	C925.000000,319.994446 925.209290,324.834808 924.929138,329.646698 
	C924.730469,333.058746 925.704346,335.481171 928.239258,337.865234 
	C934.585571,343.833893 946.586792,343.933746 952.796570,337.700439 
	C958.188110,332.288391 965.640381,327.706329 968.332703,321.171570 
	C971.033508,314.616272 968.985779,306.099426 968.996826,298.442230 
	C969.010193,289.143860 969.000000,279.845490 969.000000,270.274628 
	C974.305237,270.274628 979.374329,270.274628 985.000000,270.274628 
	C985.000000,281.320526 985.000000,292.410248 985.000000,304.000000 
z"/>
<path fill="#FFFFFF" opacity="1.000000" stroke="none" 
	d="
M1552.999756,293.501404 
	C1550.814697,287.492798 1546.061768,284.000824 1540.645630,284.000153 
	C1534.984741,283.999451 1529.234985,284.624481 1523.686523,283.834656 
	C1517.399902,282.939758 1513.736084,286.174133 1510.283203,290.270264 
	C1509.449829,291.259003 1509.063232,292.911377 1509.053467,294.262787 
	C1508.962769,306.749359 1508.972412,319.236938 1509.015015,331.724030 
	C1509.029663,336.023132 1515.240356,341.972198 1519.653564,341.991760 
	C1526.646240,342.022766 1533.639282,342.000702 1540.632080,341.999817 
	C1547.531616,341.998962 1552.940308,336.724792 1552.999268,329.939301 
	C1553.006348,329.126526 1553.000244,328.313629 1553.000244,327.251007 
	C1558.275635,327.251007 1563.361572,327.251007 1568.566895,327.251007 
	C1569.997437,334.554077 1568.568481,340.219818 1562.891235,346.157837 
	C1555.780884,353.594879 1548.586792,357.696747 1538.295288,356.075165 
	C1535.208496,355.588745 1531.980225,356.016724 1528.816895,355.996490 
	C1522.334229,355.955017 1515.027588,357.749176 1509.593262,355.335541 
	C1503.781006,352.753967 1499.645630,346.280701 1494.982300,341.314667 
	C1493.897949,340.159790 1493.097656,338.234680 1493.083740,336.656036 
	C1492.945923,320.840088 1492.943848,305.021973 1493.087524,289.206116 
	C1493.101807,287.637299 1494.332275,286.078094 1495.009155,284.519073 
	C1495.072876,284.372131 1495.203125,284.247772 1495.320557,284.131165 
	C1500.038940,279.449799 1504.010742,273.013916 1509.693115,270.593048 
	C1515.198608,268.247589 1522.462891,270.029053 1528.954712,270.000946 
	C1530.453125,269.994446 1531.951660,269.994995 1533.450073,270.000885 
	C1539.775635,270.025787 1546.766968,268.382111 1552.235596,270.560486 
	C1557.492310,272.654419 1560.855469,279.102936 1565.627197,282.916687 
	C1571.345703,287.487244 1567.818726,293.309265 1569.358887,298.752075 
	C1563.641846,298.752075 1558.565063,298.752075 1553.000000,298.752075 
	C1553.000000,297.125519 1553.000000,295.526764 1552.999756,293.501404 
z"/>
<path fill="#FFFFFF" opacity="1.000000" stroke="none" 
	d="
M1360.000000,308.000000 
	C1360.000000,324.141388 1360.000000,339.782806 1360.000000,355.711609 
	C1354.718750,355.711609 1349.646729,355.711609 1344.178223,355.711609 
	C1344.178223,320.381348 1344.178223,284.979767 1344.178223,249.181122 
	C1331.723267,249.181122 1319.647705,249.181122 1307.288330,249.181122 
	C1307.288330,244.387283 1307.288330,239.981094 1307.288330,235.284790 
	C1336.618896,235.284790 1366.020508,235.284790 1395.711548,235.284790 
	C1395.711548,239.612595 1395.711548,244.018768 1395.711548,248.827667 
	C1384.050049,248.827667 1372.306763,248.827667 1360.000000,248.827667 
	C1360.000000,268.646332 1360.000000,288.073181 1360.000000,308.000000 
z"/>
<path fill="#FFFFFF" opacity="1.000000" stroke="none" 
	d="
M1009.000000,301.000000 
	C1009.000000,290.524445 1009.000000,280.548889 1009.000000,270.287415 
	C1013.949341,270.287415 1018.687927,270.287415 1023.961548,270.287415 
	C1023.961548,274.731323 1023.961548,279.262451 1023.961548,285.467743 
	C1028.974121,280.486450 1032.733154,276.411133 1036.887695,272.789551 
	C1038.546265,271.343872 1041.040161,270.250854 1043.219360,270.123901 
	C1049.323242,269.768280 1055.461548,270.000000 1061.789307,270.000000 
	C1061.789307,274.773621 1061.789307,279.177948 1061.789307,283.998077 
	C1061.009033,283.998077 1060.358643,284.126282 1059.778076,283.979340 
	C1043.908936,279.963928 1035.047241,290.360168 1026.142944,300.470947 
	C1025.226562,301.511536 1025.053223,303.471588 1025.046387,305.007294 
	C1024.972290,321.813782 1025.000000,338.620728 1025.000000,355.713318 
	C1019.715332,355.713318 1014.643555,355.713318 1009.000000,355.713318 
	C1009.000000,337.687592 1009.000000,319.593811 1009.000000,301.000000 
z"/>
<path fill="none" opacity="1.000000" stroke="none" 
	d="
M297.186035,81.471802 
	C300.556793,78.046783 303.925018,74.619286 307.299347,71.197800 
	C309.003204,69.470161 310.112244,69.297707 309.605469,72.674980 
	C308.815430,73.732079 308.407715,74.366043 308.000000,75.000000 
	C305.532318,77.237526 303.064636,79.475060 299.965149,81.856293 
	C298.888885,82.000000 298.444458,82.000000 297.803711,81.856873 
	C297.607391,81.713753 297.186035,81.471802 297.186035,81.471802 
z"/>
<path fill="none" opacity="1.000000" stroke="none" 
	d="
M286.539001,93.999680 
	C288.552399,91.047058 290.938141,88.093803 293.803284,85.278320 
	C294.855164,85.610725 295.427582,85.805359 296.000000,86.000000 
	C293.736725,89.537025 291.992249,93.663490 286.539001,93.999680 
z"/>
<path fill="none" opacity="1.000000" stroke="none" 
	d="
M274.820618,563.186035 
	C276.830322,563.641907 278.547211,564.327148 280.632233,565.089539 
	C279.451538,566.076477 277.902740,566.986389 276.353973,567.896301 
	C275.745270,566.402710 275.136566,564.909058 274.820618,563.186035 
z"/>
<path fill="none" opacity="1.000000" stroke="none" 
	d="
M1711.244873,361.974426 
	C1709.920166,360.278198 1708.957275,358.516174 1707.939941,356.398193 
	C1712.979126,356.940948 1713.711426,358.095490 1711.244873,361.974426 
z"/>
<path fill="none" opacity="1.000000" stroke="none" 
	d="
M67.727875,355.034668 
	C67.334549,356.942535 66.554405,358.842773 65.446976,360.890472 
	C64.448456,360.147064 63.091454,358.592133 63.211819,358.467865 
	C64.451096,357.188141 65.929367,356.139862 67.727875,355.034668 
z"/>
<path fill="none" opacity="1.000000" stroke="none" 
	d="
M397.508118,262.954590 
	C397.446533,261.258270 397.726410,259.516266 398.086456,257.386963 
	C403.564392,259.264801 400.606384,261.081482 397.508118,262.954590 
z"/>
<path fill="none" opacity="1.000000" stroke="none" 
	d="
M250.510818,175.951508 
	C249.774994,174.274841 249.383347,172.549438 248.938477,170.433121 
	C253.568130,171.925430 253.875900,172.841110 250.510818,175.951508 
z"/>
<path fill="none" opacity="1.000000" stroke="none" 
	d="
M296.266632,85.880493 
	C295.427582,85.805359 294.855164,85.610725 294.118011,85.153198 
	C294.878296,83.876015 295.803314,82.861725 296.957214,81.659622 
	C297.186035,81.471802 297.607391,81.713753 297.803711,82.190208 
	C298.000000,83.111107 298.000000,83.555557 298.000000,84.000000 
	C297.511078,84.586990 297.022186,85.173988 296.266632,85.880493 
z"/>
<path fill="none" opacity="1.000000" stroke="none" 
	d="
M298.320801,83.958626 
	C298.000000,83.555557 298.000000,83.111107 298.000000,82.333328 
	C298.444458,82.000000 298.888885,82.000000 299.666687,82.000000 
	C299.547211,82.639084 299.094391,83.278168 298.320801,83.958626 
z"/>
<path fill="none" opacity="1.000000" stroke="none" 
	d="
M308.305542,75.000000 
	C308.407715,74.366043 308.815430,73.732079 309.528229,73.049042 
	C309.884613,73.446449 309.935883,73.892944 309.910248,74.669891 
	C309.425934,75.000229 309.018524,75.000114 308.305542,75.000000 
z"/>
<path fill="none" opacity="1.000000" stroke="none" 
	d="
M1090.307983,287.201660 
	C1092.858521,285.958862 1095.045288,284.620392 1097.411621,284.104095 
	C1099.637695,283.618378 1102.129761,284.384399 1104.372559,283.936951 
	C1117.836426,281.250854 1124.374268,291.327362 1132.249146,298.907043 
	C1132.825562,299.461945 1132.898926,300.669006 1132.969238,301.590973 
	C1133.083008,303.081451 1133.005859,304.587036 1132.999023,306.086182 
	C1132.969238,312.581024 1134.800781,319.899231 1132.395752,325.346527 
	C1129.827881,331.162994 1123.285522,335.240021 1118.427002,340.024323 
	C1115.445190,342.960541 1094.741821,342.699493 1091.503174,340.065186 
	C1087.360596,336.695709 1085.579590,332.846863 1085.858643,327.299255 
	C1086.359985,317.329895 1086.171753,307.312836 1085.916870,297.324799 
	C1085.812500,293.231232 1086.425659,289.830200 1090.307983,287.201660 
z"/>
<path fill="none" opacity="1.000000" stroke="none" 
	d="
M1093.938965,378.443909 
	C1091.959595,377.176178 1090.238403,376.224854 1088.517212,375.273560 
	C1089.066284,374.623474 1089.615356,373.973389 1090.164307,373.323303 
	C1103.947632,373.323303 1117.730835,373.323303 1131.713989,373.323303 
	C1128.513306,378.067719 1124.814331,380.745972 1118.680542,380.145721 
	C1112.088989,379.500610 1105.384155,380.074646 1098.732056,379.943542 
	C1097.213257,379.913635 1095.708496,379.173553 1093.938965,378.443909 
z"/>
<path fill="none" opacity="1.000000" stroke="none" 
	d="
M518.475403,287.026917 
	C514.826233,292.043915 510.338318,293.329803 504.543976,293.138763 
	C491.254089,292.700500 477.939850,293.000000 464.317993,293.000000 
	C464.317993,278.454620 464.317993,264.059357 464.317993,249.000000 
	C466.363342,249.000000 468.617798,249.000000 470.872284,249.000000 
	C483.690857,249.000015 496.509460,248.982895 509.327972,249.009033 
	C514.001160,249.018570 519.975525,255.053894 519.992737,259.754730 
	C520.020142,267.246002 520.065918,274.738525 519.945068,282.227936 
	C519.920471,283.749817 519.192017,285.260284 518.475403,287.026917 
z"/>
<path fill="none" opacity="1.000000" stroke="none" 
	d="
M719.000000,314.959045 
	C720.212036,322.607941 717.013367,327.457001 712.209167,332.748871 
	C705.608337,340.019867 698.575439,343.638794 688.904297,342.025665 
	C687.770813,341.836609 686.578491,342.000000 685.413452,342.000000 
	C676.870178,341.999939 672.000000,337.097900 672.000000,328.498688 
	C671.999939,317.347656 671.989136,306.196625 672.004883,295.045624 
	C672.012024,289.995148 677.892761,284.025818 682.876160,284.005524 
	C688.701233,283.981812 694.527893,283.930634 700.350708,284.046082 
	C701.915894,284.077118 703.861389,284.191223 704.960815,285.089264 
	C709.523987,288.816650 713.904785,292.780701 718.160583,296.858215 
	C718.910706,297.576904 718.941406,299.249176 718.964783,300.487488 
	C719.052612,305.145966 719.000000,309.807098 719.000000,314.959045 
z"/>
<path fill="none" opacity="1.000000" stroke="none" 
	d="
M1413.201660,304.997986 
	C1412.270020,304.857300 1411.519409,304.833893 1411.415405,304.562622 
	C1408.937378,298.096436 1412.112671,288.328583 1417.937012,284.699829 
	C1418.813354,284.153809 1420.068970,284.035614 1421.150879,284.028931 
	C1429.624634,283.976715 1438.098999,283.972687 1446.572876,284.011383 
	C1450.892578,284.031097 1456.942261,290.135040 1456.992432,294.469025 
	C1457.030640,297.776031 1457.000000,301.083832 1457.000000,304.999756 
	C1442.450928,304.999756 1428.067383,304.999756 1413.201660,304.997986 
z"/>
<path fill="none" opacity="1.000000" stroke="none" 
	d="
M1187.000244,293.573303 
	C1189.040771,287.617950 1193.894897,284.000793 1199.266846,284.000183 
	C1206.749756,283.999390 1214.240845,283.806549 1221.710449,284.120697 
	C1223.884888,284.212128 1226.156738,285.492188 1228.111450,286.676819 
	C1235.361694,291.070770 1232.450073,298.221924 1233.069946,304.751190 
	C1217.664185,304.751190 1202.614990,304.751190 1187.000000,304.751190 
	C1187.000000,301.199921 1187.000000,297.603973 1187.000244,293.573303 
z"/>
<path fill="none" opacity="1.000000" stroke="none" 
	d="
M579.416626,286.089111 
	C581.303406,285.224792 582.874023,284.117096 584.467590,284.082977 
	C592.783325,283.905090 601.104919,283.976654 609.424255,284.009521 
	C613.797119,284.026794 619.930542,290.041687 619.990723,294.343567 
	C620.037231,297.666138 620.000000,300.989838 620.000000,305.000000 
	C612.350952,305.000000 604.775818,305.000000 597.200623,305.000000 
	C589.591919,305.000000 581.983154,305.000000 573.942627,305.000000 
	C574.481445,298.125732 571.680359,290.907684 579.416626,286.089111 
z"/>
</svg>